<svg width="40" height="40" viewBox="0 0 40 40" fill="none" xmlns="http://www.w3.org/2000/svg">
<g clip-path="url(#clip0_349_7507)">
<path d="M37.5771 6.40625V36.4844C37.5771 38.4226 36 40 34.0615 40H5.93652C3.99835 40 2.4209 38.4226 2.4209 36.4844V6.40625H37.5771Z" fill="#F0F7FF"/>
<path d="M37.5771 6.40625V36.4844C37.5771 38.4226 36 40 34.0615 40H19.999V6.40625H37.5771Z" fill="#DFE7F4"/>
<path d="M37.5775 3.51562V6.95312H2.42126V3.51562C2.42126 1.57745 3.99872 0 5.93689 0H34.0619C36.0001 0 37.5775 1.57745 37.5775 3.51562Z" fill="#444956"/>
<path d="M37.5775 3.51562V6.95312H19.9994V0H34.0619C36.0001 0 37.5775 1.57745 37.5775 3.51562Z" fill="#000032"/>
<path d="M39.8187 11.25H0.181236C0.0680162 11.1139 -0.133095 10.5975 0.130577 10.0867L2.55245 5.39917C2.75387 5.01007 3.15548 4.76562 3.59371 4.76562H36.4062C36.8444 4.76562 37.2461 5.01007 37.4475 5.39917L39.8693 10.0867C40.1275 10.5865 39.9401 11.1044 39.8187 11.25Z" fill="#FDE047"/>
<path d="M39.8187 11.25H20V4.76562H36.4062C36.8445 4.76562 37.2461 5.01007 37.4475 5.39917L39.8694 10.0867C40.1276 10.5865 39.9402 11.1044 39.8187 11.25Z" fill="#FDE047"/>
<path d="M10.4 4.76562L7.75295 11.25H0.181236C0.0680162 11.1139 -0.133095 10.5975 0.130577 10.0867L2.55245 5.39917C2.75387 5.01007 3.15548 4.76562 3.59371 4.76562H10.4Z" fill="#568A73"/>
<path d="M24.1718 11.25H15.8282L17.7734 4.76562H22.2266L24.1718 11.25Z" fill="#568A73"/>
<path d="M24.1718 11.25H20V4.76562H22.2266C22.2504 4.84497 24.1476 11.1694 24.1718 11.25Z" fill="#347357"/>
<path d="M39.8187 11.25H32.2469L29.5999 4.76562H36.4062C36.8444 4.76562 37.246 5.01007 37.4474 5.39917L39.8693 10.0867C40.1275 10.5865 39.9401 11.1044 39.8187 11.25Z" fill="#347357"/>
<path d="M3.99994 18.0469C6.20911 18.0469 7.99988 16.2561 7.99988 14.0469V10.625H0V14.0469C0 16.2561 1.79077 18.0469 3.99994 18.0469Z" fill="#347357"/>
<path d="M12.0001 18.0469C14.2093 18.0469 16.0001 16.2561 16.0001 14.0469V10.625H7.99988V14.0469C7.99988 16.2561 9.79095 18.0469 12.0001 18.0469Z" fill="#FACC15"/>
<path d="M19.9999 18.0469C22.2091 18.0469 23.9999 16.2561 23.9999 14.0469V10.625H16V14.0469C16 16.2561 17.7908 18.0469 19.9999 18.0469Z" fill="#347357"/>
<path d="M23.9999 10.625V14.0469C23.9999 16.2561 22.2095 18.0469 20 18.0469V10.625H23.9999Z" fill="#2B6049"/>
<path d="M27.9999 18.0469C30.2091 18.0469 32.0002 16.2561 32.0002 14.0469V10.625H24V14.0469C24 16.2561 25.7908 18.0469 27.9999 18.0469Z" fill="#FACC15"/>
<path d="M36.0001 18.0469C38.2092 18.0469 40 16.2561 40 14.0469V10.625H32.0001V14.0469C32.0001 16.2561 33.7909 18.0469 36.0001 18.0469Z" fill="#2B6049"/>
<path d="M15.8405 22.481L15.7912 24.9227C15.7856 25.1973 15.5593 25.4179 15.2813 25.4126C15.2493 25.4119 15.2183 25.4079 15.1883 25.4016C15.1513 25.5016 15.0827 25.5909 14.9857 25.6519C14.8877 25.7132 14.777 25.7359 14.6704 25.7252C14.6197 25.9305 14.4478 26.1058 14.1868 26.1058C14.0372 26.1058 14.1668 26.1461 11.7585 25.0427C11.5075 24.9273 11.3972 24.6307 11.5122 24.3798C11.6275 24.1288 11.9241 24.0185 12.1751 24.1335L13.9545 24.949L12.3667 22.4194C12.2201 22.1854 12.2908 21.8768 12.5244 21.7302C12.7583 21.5832 13.067 21.6538 13.2136 21.8878L14.8014 24.4174L14.8407 22.4607C14.8464 22.1848 15.0753 21.9655 15.3506 21.9711C15.6266 21.9765 15.8459 22.2047 15.8405 22.481Z" fill="#347357"/>
<path d="M15.8406 22.481L15.7913 24.9227C15.7856 25.1973 15.5593 25.4179 15.2813 25.4126C15.2493 25.4119 15.2183 25.4079 15.1883 25.4016C15.1513 25.5016 15.0827 25.5909 14.9857 25.6519L12.5244 21.7302C12.7584 21.5832 13.067 21.6538 13.2136 21.8878L14.8014 24.4174L14.8407 22.4607C14.8464 22.1848 15.0754 21.9655 15.3507 21.9711C15.6266 21.9765 15.8459 22.2047 15.8406 22.481Z" fill="#2B6049"/>
<path d="M25.9474 25.2723C24.9742 26.2455 23.1891 26.3755 23.1138 26.3808C23.1025 26.3815 23.0915 26.3818 23.0801 26.3818C22.9592 26.3818 22.8419 26.3378 22.7502 26.2571C22.6502 26.1695 22.5896 26.0455 22.5812 25.9125C22.5679 25.6962 22.4796 23.7699 23.4624 22.7873C24.4756 21.7738 26.2353 21.9818 26.3097 21.9911C26.5363 22.0198 26.7149 22.1984 26.7433 22.4251C26.7526 22.4993 26.9609 24.2591 25.9474 25.2723Z" fill="#347357"/>
<path d="M22.6476 26.3817C22.6317 26.3817 22.6157 26.381 22.5995 26.3794C22.3252 26.3532 22.1238 26.1099 22.1493 25.8356C22.1505 25.821 22.1999 25.2129 22.0007 24.5025C21.7451 23.5912 21.2117 22.9344 20.4152 22.5504C20.1666 22.4304 20.0621 22.1316 20.182 21.883C20.302 21.6342 20.6008 21.5298 20.8495 21.6498C21.9126 22.1623 22.6471 23.0686 22.9739 24.2705C23.2148 25.1568 23.1477 25.8982 23.1447 25.9293C23.12 26.188 22.9023 26.3817 22.6476 26.3817Z" fill="#2B6049"/>
<path d="M23.1671 27.5636L22.6678 25.3819C22.3995 25.3779 22.1362 25.3352 21.8876 25.2589C21.5226 25.1469 21.1457 25.0899 20.7664 25.0899C19.8749 25.0899 19.0054 25.4059 18.3185 25.9791C18.1571 26.1134 18.0972 26.3344 18.1685 26.532L21.088 34.6438C21.1347 34.7734 21.233 34.8784 21.3597 34.9331C21.6024 35.0385 21.8303 34.927 22.0955 34.7474C22.4091 34.5364 22.8113 34.4952 23.1671 34.6558V27.5636Z" fill="#568A73"/>
<path d="M21.8644 34.6473L21.7207 36.3839C21.5254 36.5065 21.3064 36.5669 21.0864 36.5669C20.7745 36.5669 20.4599 36.4462 20.2052 36.2119C19.5803 35.6363 18.8168 34.9244 18.0232 34.1636C17.3027 33.4727 16.5571 32.7408 15.8679 32.0342C15.7979 31.9626 15.9359 31.2683 15.9359 31.2683C15.9359 31.2683 15.3157 31.461 15.1593 31.2947C13.203 29.2117 12.8644 28.4578 12.787 28.0692C12.6091 27.174 12.852 26.3181 13.4889 25.5939C13.8882 25.1406 14.3281 24.875 14.4538 24.8043L16.1974 25.257L21.8644 34.6473Z" fill="#FDE047"/>
<path d="M21.7206 36.3839L14.4537 24.8043C14.5721 24.722 15.0023 24.4414 15.5842 24.2791C16.5131 24.0204 17.3893 24.1738 18.1182 24.7233C18.3438 24.8936 18.6791 25.2646 19.2247 26.4314C19.2827 26.5554 18.8417 27.2866 18.8287 27.3083C18.8417 27.3059 19.554 27.173 19.6303 27.3569C19.8159 27.8039 20.0206 28.3275 20.2465 28.9414C20.4648 29.5339 20.6831 30.1565 20.8951 30.7817C20.9457 30.9311 20.4035 31.6613 20.4035 31.6613C20.4035 31.6613 21.1607 31.575 21.217 31.7469C21.6016 32.9158 21.9516 34.0433 22.2246 34.9444C22.3959 35.509 22.1932 36.0873 21.7206 36.3839Z" fill="#FACC15"/>
<path d="M19.6303 27.3569L18.0495 28.3454C17.9668 28.3974 17.8749 28.4221 17.7842 28.4221C17.6179 28.4221 17.4553 28.3391 17.3603 28.1878C17.2136 27.9538 17.2843 27.6452 17.5179 27.4986L19.2246 26.4314C19.3486 26.6964 19.4836 27.0027 19.6303 27.3569Z" fill="#EAB308"/>
<path d="M17.224 31.1777C16.5884 31.5773 16.1611 31.8493 15.8679 32.0343C15.7979 31.9626 15.7285 31.891 15.6599 31.82C15.4823 31.636 15.3156 31.461 15.1593 31.2947L16.6924 30.3309C16.9264 30.1842 17.235 30.2545 17.3816 30.4885C17.5283 30.7224 17.4576 31.0311 17.224 31.1777Z" fill="#EAB308"/>
<path d="M21.2171 31.7469L20.0919 32.3686C19.8499 32.5019 19.5459 32.4139 19.4126 32.1723C19.2793 31.9303 19.367 31.6264 19.6089 31.4931L20.8951 30.7817C21.0045 31.104 21.1121 31.427 21.2171 31.7469Z" fill="#EAB308"/>
<path d="M27.7614 31.8452L26.2803 34.1422C25.6386 35.1358 24.3185 35.4018 23.3454 34.7564C23.3411 34.7534 23.3364 34.7504 23.3321 34.7474C23.1308 34.6118 22.8981 34.5491 22.6678 34.5588V25.3819C22.9568 25.3869 23.2514 25.3472 23.5404 25.2585C23.905 25.1469 24.2823 25.0899 24.6615 25.0899C26.298 25.0899 27.7504 26.1321 28.2757 27.6832C28.7506 29.0847 28.5633 30.6014 27.7614 31.8452Z" fill="#2B6049"/>
</g>
<defs>
<clipPath id="clip0_349_7507">
<rect width="40" height="40" fill="white"/>
</clipPath>
</defs>
</svg>
