<svg width="40" height="40" viewBox="0 0 40 40" fill="none" xmlns="http://www.w3.org/2000/svg">
<g clip-path="url(#clip0_349_7506)">
<path d="M27.1398 38.0655L27.084 38.0004C25.7905 36.4913 25.0782 34.5656 25.0782 32.5781C25.0782 31.9309 24.5535 31.4062 23.9063 31.4062H16.0938C15.4466 31.4062 14.9219 31.9309 14.9219 32.5781C14.9219 34.5656 14.2096 36.4913 12.9161 38.0004L12.8603 38.0655C12.6747 38.282 12.5783 38.5535 12.5782 38.828H27.4218C27.4218 38.5536 27.3254 38.2821 27.1398 38.0655Z" fill="#444956"/>
<path d="M27.1398 38.0655L27.0839 38.0004C25.7905 36.4913 25.0781 34.5656 25.0781 32.5781C25.0781 31.9309 24.5534 31.4062 23.9062 31.4062H20V38.8281H27.4218C27.4217 38.5536 27.3254 38.2821 27.1398 38.0655Z" fill="#000032"/>
<path d="M28.5938 40H11.4062C10.7591 40 10.2344 39.4753 10.2344 38.8281C10.2344 38.1809 10.7591 37.6562 11.4062 37.6562H28.5938C29.2409 37.6562 29.7656 38.1809 29.7656 38.8281C29.7656 39.4753 29.2409 40 28.5938 40Z" fill="#444956"/>
<path d="M28.5938 40C29.2409 40 29.7656 39.4753 29.7656 38.8281C29.7656 38.1809 29.2409 37.6562 28.5938 37.6562H20V40H28.5938Z" fill="#000032"/>
<path d="M36.4844 33.75H3.51562C1.57711 33.75 0 32.1729 0 30.2344V8.35938C0 6.42086 1.57711 4.84375 3.51562 4.84375H36.4844C38.4229 4.84375 40 6.42086 40 8.35938V30.2344C40 32.1729 38.4229 33.75 36.4844 33.75Z" fill="#2B6049"/>
<path d="M36.4844 4.84375H20V33.75H36.4844C38.4229 33.75 40 32.1729 40 30.2344V8.35938C40 6.42086 38.4229 4.84375 36.4844 4.84375Z" fill="#234D3A"/>
<path d="M37.6562 8.35938C37.6562 7.7132 37.1305 7.1875 36.4844 7.1875H3.51562C2.86945 7.1875 2.34375 7.7132 2.34375 8.35938V26.7188H8.67188L20 25.1562L31.3281 26.7188H37.6562V8.35938Z" fill="#F0F7FF"/>
<path d="M36.4844 7.1875H20V25.1562L31.3281 26.7188H37.6562V8.35938C37.6562 7.7132 37.1305 7.1875 36.4844 7.1875Z" fill="#DFE7F4"/>
<path d="M31.3281 26.7188H8.67188V1.17188C8.67188 0.524687 9.19656 0 9.84375 0H30.1562C30.8034 0 31.3281 0.524687 31.3281 1.17188V26.7188Z" fill="#E3EBF7"/>
<path d="M31.3281 26.7188H20V0H30.1562C30.8034 0 31.3281 0.524687 31.3281 1.17188V26.7188Z" fill="#C7CFE1"/>
<path d="M24.2969 13.6541V21.875C24.2969 22.8109 25.34 23.3692 26.1188 22.8501L27.8125 21.7209L29.5062 22.8501C30.285 23.3693 31.3281 22.811 31.3281 21.875V13.6541H24.2969Z" fill="#568A73"/>
<path d="M27.8125 13.6541V21.7208L29.5062 22.85C30.285 23.3692 31.3281 22.811 31.3281 21.875V13.6541H27.8125Z" fill="#347357"/>
<path d="M27.8125 15.625C29.9699 15.625 31.7188 13.8761 31.7188 11.7188C31.7188 9.56139 29.9699 7.8125 27.8125 7.8125C25.6551 7.8125 23.9062 9.56139 23.9062 11.7188C23.9062 13.8761 25.6551 15.625 27.8125 15.625Z" fill="#EAB308"/>
<path d="M27.8125 7.8125V15.625C29.9698 15.625 31.7188 13.8761 31.7188 11.7188C31.7188 9.56141 29.9698 7.8125 27.8125 7.8125Z" fill="#CA8A04"/>
<path d="M27.8125 16.7969C25.0124 16.7969 22.7344 14.5188 22.7344 11.7188C22.7344 8.91867 25.0124 6.64062 27.8125 6.64062C30.6126 6.64062 32.8906 8.91867 32.8906 11.7188C32.8906 14.5188 30.6126 16.7969 27.8125 16.7969ZM27.8125 8.98438C26.3048 8.98438 25.0781 10.211 25.0781 11.7188C25.0781 13.2265 26.3048 14.4531 27.8125 14.4531C29.3202 14.4531 30.5469 13.2265 30.5469 11.7188C30.5469 10.211 29.3202 8.98438 27.8125 8.98438Z" fill="#FDE047"/>
<path d="M27.8125 6.64062V8.98438C29.3202 8.98438 30.5469 10.211 30.5469 11.7188C30.5469 13.2265 29.3202 14.4531 27.8125 14.4531V16.7969C30.6126 16.7969 32.8906 14.5188 32.8906 11.7188C32.8906 8.91867 30.6126 6.64062 27.8125 6.64062Z" fill="#FACC15"/>
<path d="M17.4948 7.89062H13.1979C12.5507 7.89062 12.026 7.36594 12.026 6.71875C12.026 6.07156 12.5507 5.54688 13.1979 5.54688H17.4948C18.1419 5.54688 18.6666 6.07156 18.6666 6.71875C18.6666 7.36594 18.1419 7.89062 17.4948 7.89062Z" fill="#C7CFE1"/>
<path d="M17.4948 12.5781H13.1979C12.5507 12.5781 12.026 12.0534 12.026 11.4062C12.026 10.7591 12.5507 10.2344 13.1979 10.2344H17.4948C18.1419 10.2344 18.6666 10.7591 18.6666 11.4062C18.6666 12.0534 18.1419 12.5781 17.4948 12.5781Z" fill="#C7CFE1"/>
<path d="M17.4948 17.2656H13.1979C12.5507 17.2656 12.026 16.7409 12.026 16.0938C12.026 15.4466 12.5507 14.9219 13.1979 14.9219H17.4948C18.1419 14.9219 18.6666 15.4466 18.6666 16.0938C18.6666 16.7409 18.1419 17.2656 17.4948 17.2656Z" fill="#C7CFE1"/>
</g>
<defs>
<clipPath id="clip0_349_7506">
<rect width="40" height="40" fill="white"/>
</clipPath>
</defs>
</svg>
