<svg width="20" height="20" viewBox="0 0 20 20" fill="none" xmlns="http://www.w3.org/2000/svg">
<path d="M3.55469 2.92969V17.0703L10 18.2422L16.4453 17.0703V2.92969L10 1.75781L3.55469 2.92969Z" fill="#F0F7FF"/>
<path d="M16.4453 17.0703V2.92969L10 1.75781V18.2422L16.4453 17.0703Z" fill="#DFE7F4"/>
<path d="M16.4453 17.0703V18.2422C16.4453 19.2148 15.6602 20 14.6875 20H5.3125C4.3398 20 3.55469 19.2148 3.55469 18.2422V17.0703H16.4453Z" fill="#2B6049"/>
<path d="M10 20H14.6875C15.6602 20 16.4453 19.2148 16.4453 18.2422V17.0703H10V20Z" fill="#234D3A"/>
<path d="M16.4453 1.75781V2.92969H3.55469V1.75781C3.55469 0.785117 4.3398 0 5.3125 0H14.6875C15.6602 0 16.4453 0.785117 16.4453 1.75781Z" fill="#2B6049"/>
<path d="M16.4453 2.92969V1.75781C16.4453 0.785117 15.6602 0 14.6875 0H10V2.92969H16.4453Z" fill="#234D3A"/>
<path d="M13.5156 8.24219H6.48438C6.16051 8.24219 5.89844 7.98012 5.89844 7.65625V5.3125C5.89844 4.98863 6.16051 4.72656 6.48438 4.72656H13.5156C13.8395 4.72656 14.1016 4.98863 14.1016 5.3125V7.65625C14.1016 7.98012 13.8395 8.24219 13.5156 8.24219Z" fill="#568A73"/>
<path d="M13.5156 12.9297H6.48438C6.16051 12.9297 5.89844 12.6676 5.89844 12.3438C5.89844 12.0199 6.16051 11.7578 6.48438 11.7578H13.5156C13.8395 11.7578 14.1016 12.0199 14.1016 12.3438C14.1016 12.6676 13.8395 12.9297 13.5156 12.9297Z" fill="#DFE7F4"/>
<path d="M13.5156 10.5859H6.48438C6.16051 10.5859 5.89844 10.3239 5.89844 10C5.89844 9.67613 6.16051 9.41406 6.48438 9.41406H13.5156C13.8395 9.41406 14.1016 9.67613 14.1016 10C14.1016 10.3239 13.8395 10.5859 13.5156 10.5859Z" fill="#DFE7F4"/>
<path d="M13.5156 15.2734H6.48438C6.16051 15.2734 5.89844 15.0114 5.89844 14.6875C5.89844 14.3636 6.16051 14.1016 6.48438 14.1016H13.5156C13.8395 14.1016 14.1016 14.3636 14.1016 14.6875C14.1016 15.0114 13.8395 15.2734 13.5156 15.2734Z" fill="#DFE7F4"/>
<path d="M13.5156 14.1016H10V15.2734H13.5156C13.8395 15.2734 14.1016 15.0114 14.1016 14.6875C14.1016 14.3636 13.8395 14.1016 13.5156 14.1016Z" fill="#C7CFE1"/>
<path d="M13.5156 11.7578H10V12.9297H13.5156C13.8395 12.9297 14.1016 12.6676 14.1016 12.3438C14.1016 12.0199 13.8395 11.7578 13.5156 11.7578Z" fill="#C7CFE1"/>
<path d="M13.5156 9.41406H10V10.5859H13.5156C13.8395 10.5859 14.1016 10.3239 14.1016 10C14.1016 9.67613 13.8395 9.41406 13.5156 9.41406Z" fill="#C7CFE1"/>
<path d="M13.5156 4.72656H10V8.24219H13.5156C13.8395 8.24219 14.1016 7.98012 14.1016 7.65625V5.3125C14.1016 4.98863 13.8395 4.72656 13.5156 4.72656Z" fill="#347357"/>
</svg>
