<svg width="20" height="20" viewBox="0 0 20 20" fill="none" xmlns="http://www.w3.org/2000/svg">
<g clip-path="url(#clip0_333_4393)">
<path d="M14.3316 8.08519C14.073 7.89066 14.0215 7.52327 14.216 7.26464C14.9072 6.34624 15.2735 5.25218 15.2735 4.10148C15.2735 2.95077 14.9072 1.85671 14.216 0.938313C14.0215 0.67968 14.073 0.312337 14.3316 0.117766C14.5879 -0.0762182 14.9565 -0.0258666 15.1522 0.233352C15.9979 1.35659 16.4453 2.69441 16.4453 4.10144C16.4453 5.50847 15.9979 6.84632 15.1522 7.96952C14.9549 8.23042 14.5872 8.27823 14.3316 8.08519Z" fill="#FACC15"/>
<path d="M12.6962 6.43096C12.4203 6.26217 12.3334 5.90111 12.5016 5.62529C12.782 5.16752 12.9296 4.64053 12.9296 4.10151C12.9296 3.56248 12.782 3.03549 12.5016 2.57772C12.3334 2.3019 12.4204 1.94084 12.6962 1.77205C12.9697 1.60611 13.3313 1.68908 13.5018 1.96658C13.8944 2.60803 14.1015 3.34615 14.1015 4.10147C14.1015 4.85678 13.8944 5.5949 13.5018 6.23635C13.3307 6.51518 12.9683 6.59819 12.6962 6.43096Z" fill="#FACC15"/>
<path d="M4.84785 7.96965C4.00215 6.8464 3.55469 5.50859 3.55469 4.10156C3.55469 2.69453 4.00215 1.35668 4.84785 0.233474C5.04355 -0.0257445 5.41203 -0.0760961 5.6684 0.117888C5.92703 0.31242 5.97852 0.679802 5.78398 0.938435C5.09273 1.85683 4.72656 2.9509 4.72656 4.1016C4.72656 5.2523 5.09273 6.34636 5.78398 7.26476C5.97852 7.5234 5.92703 7.89074 5.6684 8.08531C5.4127 8.2784 5.04504 8.23027 4.84785 7.96965Z" fill="#FDE047"/>
<path d="M6.49813 6.2364C6.10559 5.59495 5.89844 4.85683 5.89844 4.10151C5.89844 3.3462 6.10559 2.60808 6.49813 1.96663C6.6675 1.68854 7.03027 1.60444 7.30379 1.7721C7.57961 1.94089 7.66656 2.30194 7.49832 2.57776C7.21793 3.03554 7.07031 3.56253 7.07031 4.10155C7.07031 4.64058 7.21793 5.16757 7.49832 5.62534C7.66656 5.90116 7.57957 6.26222 7.30379 6.43101C7.03191 6.598 6.66945 6.51546 6.49813 6.2364Z" fill="#FDE047"/>
<path d="M16.4006 19.1886L12.4935 9.73347C12.4934 9.73304 12.4932 9.73269 12.493 9.73218L10.5412 5.04796C10.3581 4.61194 9.64174 4.61194 9.45862 5.04796L7.5069 9.73218C7.5067 9.73269 7.50647 9.73304 7.50631 9.73347L3.59928 19.1886C3.49514 19.4403 3.57752 19.731 3.79842 19.8901C4.02045 20.0486 4.32026 20.0332 4.5274 19.8546L9.99998 14.9757L15.4726 19.8546C15.6802 20.0355 15.9798 20.0478 16.2015 19.8901C16.4224 19.731 16.5048 19.4403 16.4006 19.1886ZM9.99994 6.79663L11.074 9.37499H8.92592L9.99994 6.79663ZM5.65236 17.2692L7.50401 12.787L9.1119 14.1964L5.65236 17.2692ZM7.98006 11.6455L8.43768 10.5469H11.5622L12.0198 11.6455L9.99994 13.4171L7.98006 11.6455ZM10.888 14.1964L12.4959 12.787L14.3476 17.2692L10.888 14.1964Z" fill="#F0F7FF"/>
<path d="M11.074 9.37495H10V10.5468H11.5623L12.0199 11.6455L10 13.417V14.9757L15.4726 19.8546C15.6802 20.0355 15.9798 20.0477 16.2016 19.8901C16.4224 19.731 16.5048 19.4403 16.4007 19.1885L12.4936 9.73342C12.4934 9.733 12.4932 9.73264 12.493 9.73214L10.5413 5.04792C10.4497 4.82991 10.2248 4.72089 10 4.72089V6.79655L11.074 9.37495ZM12.496 12.787L14.3476 17.2692L10.8881 14.1963L12.496 12.787Z" fill="#DFE7F4"/>
<path d="M10 5.85931C9.0307 5.85931 8.24219 5.0708 8.24219 4.1015C8.24219 3.1322 9.0307 2.34369 10 2.34369C10.9693 2.34369 11.7578 3.1322 11.7578 4.1015C11.7578 5.0708 10.9693 5.85931 10 5.85931Z" fill="#F0F7FF"/>
<path d="M6.48437 20H2.96875C2.64488 20 2.38281 19.7379 2.38281 19.4141C2.38281 19.0902 2.64488 18.8281 2.96875 18.8281H6.48437C6.80824 18.8281 7.07031 19.0902 7.07031 19.4141C7.07031 19.7379 6.80824 20 6.48437 20Z" fill="#464B52"/>
<path d="M17.0312 20H13.5156C13.1918 20 12.9297 19.7379 12.9297 19.4141C12.9297 19.0902 13.1918 18.8281 13.5156 18.8281H17.0312C17.3551 18.8281 17.6172 19.0902 17.6172 19.4141C17.6172 19.7379 17.3551 20 17.0312 20Z" fill="#292B2F"/>
<path d="M11.7578 4.1015C11.7578 3.1322 10.9693 2.34369 10 2.34369V5.85931C10.9693 5.85931 11.7578 5.0708 11.7578 4.1015Z" fill="#DFE7F4"/>
</g>
<defs>
<clipPath id="clip0_333_4393">
<rect width="20" height="20" fill="white"/>
</clipPath>
</defs>
</svg>
