<svg width="20" height="20" viewBox="0 0 20 20" fill="none" xmlns="http://www.w3.org/2000/svg">
<path d="M14.1162 5.29291H12.9443V3.5426C12.9443 2.8842 12.4086 2.34857 11.7503 2.34857H8.24969C7.59133 2.34857 7.05566 2.8842 7.05566 3.5426V5.29291H5.88379V3.5426C5.88379 2.23802 6.94516 1.1767 8.24969 1.1767H11.7503C13.0548 1.1767 14.1162 2.23802 14.1162 3.5426V5.29291Z" fill="#464B52"/>
<path d="M11.7503 1.1767H10V2.34857H11.7503C12.4087 2.34857 12.9443 2.8842 12.9443 3.5426V5.29291H14.1162V3.5426C14.1162 2.23802 13.0548 1.1767 11.7503 1.1767Z" fill="#292B2F"/>
<path d="M17.1141 18.8233H2.88594C1.29465 18.8233 0 17.5287 0 15.9374V5.29285C0 5.29285 5.13215 11.7675 10 11.7675C14.8679 11.7675 20 5.29285 20 5.29285V15.9374C20 17.5287 18.7054 18.8233 17.1141 18.8233Z" fill="#347357"/>
<path d="M17.1141 18.8233C18.7054 18.8233 20 17.5287 20 15.9374V5.29285C20 5.29285 14.8679 11.7675 10 11.7675V18.8233H17.1141Z" fill="#2B6049"/>
<path d="M10 12.9394C7.35945 12.9394 4.87055 12.1634 2.99172 10.7543C1.06246 9.3074 0 7.36783 0 5.29291C0 4.96931 0.262344 4.70697 0.585938 4.70697H19.4141C19.7377 4.70697 20 4.96931 20 5.29291C20 7.36783 18.9375 9.3074 17.0083 10.7543C15.1295 12.1633 12.6405 12.9394 10 12.9394Z" fill="#568A73"/>
<path d="M19.4141 4.70697H10V12.9394C12.6405 12.9394 15.1295 12.1634 17.0083 10.7543C18.9375 9.3074 20 7.36783 20 5.29291C20 4.96927 19.7377 4.70697 19.4141 4.70697Z" fill="#347357"/>
<path d="M11.9155 9.85211H8.08459C7.761 9.85211 7.49866 10.1145 7.49866 10.438V12.3535C7.49866 13.7327 8.62077 14.8548 10 14.8548C11.3793 14.8548 12.5014 13.7327 12.5014 12.3535V10.438C12.5014 10.1145 12.239 9.85211 11.9155 9.85211Z" fill="#FDE047"/>
<path d="M11.9154 9.85211H10V14.8548C11.3793 14.8548 12.5014 13.7327 12.5014 12.3534V10.438C12.5014 10.1145 12.239 9.85211 11.9154 9.85211Z" fill="#FACC15"/>
</svg>
