<svg width="40" height="40" viewBox="0 0 40 40" fill="none" xmlns="http://www.w3.org/2000/svg">
<path d="M28.75 35.819H27.8125V31.2096C27.8125 30.5624 27.2878 30.0378 26.6406 30.0378H13.3594C12.7122 30.0378 12.1875 30.5624 12.1875 31.2096V35.819H11.25C10.6028 35.819 10.0781 36.3437 10.0781 36.9909C10.0781 37.6381 10.6028 38.1628 11.25 38.1628H28.75C29.3972 38.1628 29.9219 37.6381 29.9219 36.9909C29.9219 36.3437 29.3972 35.819 28.75 35.819Z" fill="#444956"/>
<path d="M28.75 35.819H27.8125V31.2096C27.8125 30.5624 27.2878 30.0378 26.6406 30.0378H20.0095V38.1628H28.75C29.3972 38.1628 29.9219 37.6381 29.9219 36.9909C29.9219 36.3437 29.3972 35.819 28.75 35.819Z" fill="#000032"/>
<path d="M36.4844 32.3815H3.51562C1.57711 32.3815 0 30.8044 0 28.8659V5.35291C0 3.41439 1.57711 1.83728 3.51562 1.83728H36.4844C38.4229 1.83728 40 3.41439 40 5.35291V28.866C40 30.8045 38.4229 32.3815 36.4844 32.3815Z" fill="#2B6049"/>
<path d="M36.4844 1.83728H20.0095V32.3816H36.4844C38.4229 32.3816 40 30.8045 40 28.866V5.35291C40 3.41431 38.4229 1.83728 36.4844 1.83728Z" fill="#234D3A"/>
<path fill-rule="evenodd" clip-rule="evenodd" d="M37.6562 25.2735V5.35291C37.6562 4.70673 37.1305 4.18103 36.4844 4.18103H3.51562C2.86945 4.18103 2.34375 4.70673 2.34375 5.35291V25.2735H37.6562Z" fill="#F0F7FF"/>
<path fill-rule="evenodd" clip-rule="evenodd" d="M36.4844 4.18103H20.0095V25.2735H37.6562V5.35291C37.6562 4.70666 37.1305 4.18103 36.4844 4.18103Z" fill="#DFE7F4"/>
<path d="M20 13.6315C19.3528 13.6315 18.8281 13.1068 18.8281 12.4596V8.55338C18.8281 7.90619 19.3528 7.3815 20 7.3815C20.6472 7.3815 21.1719 7.90619 21.1719 8.55338V12.4596C21.1719 13.1069 20.6472 13.6315 20 13.6315Z" fill="#444956"/>
<path d="M20.0095 7.38205V13.6311C20.6523 13.626 21.1719 13.1037 21.1719 12.4597V8.55346C21.1719 7.90939 20.6523 7.38721 20.0095 7.38205Z" fill="#000032"/>
<path fill-rule="evenodd" clip-rule="evenodd" d="M28.8281 8.16275H26.1079L26.161 7.77525C26.207 7.43986 26.1057 7.10087 25.8831 6.84579C25.6605 6.59056 25.3386 6.44415 25 6.44415H20C19.3528 6.44415 18.8281 6.96884 18.8281 7.61603C18.8281 7.629 18.8288 8.7879 18.8288 8.7879H23.6564L23.6033 9.1754C23.5573 9.51079 23.6586 9.84978 23.8812 10.1049C24.1037 10.3601 24.4258 10.5065 24.7643 10.5065H28.8281C29.4753 10.5065 30 9.98181 30 9.33462C30 8.68743 29.4753 8.16275 28.8281 8.16275Z" fill="#2B6049"/>
<path fill-rule="evenodd" clip-rule="evenodd" d="M28.8281 8.16275H26.1079L26.161 7.77525C26.207 7.43986 26.1057 7.10087 25.8831 6.84579C25.6605 6.59056 25.3386 6.44415 25 6.44415H20.0095V8.7879H23.6564L23.6033 9.1754C23.5573 9.51079 23.6586 9.84978 23.8812 10.1049C24.1037 10.3601 24.4258 10.5065 24.7643 10.5065H28.8281C29.4753 10.5065 30 9.98181 30 9.33462C30 8.68743 29.4753 8.16275 28.8281 8.16275Z" fill="#234D3A"/>
<path d="M26.4768 19.9596H13.5231C13.2025 19.9596 12.896 19.8283 12.6748 19.5963C12.4536 19.3642 12.3372 19.0517 12.3525 18.7316C12.4468 16.771 13.2858 14.9384 14.7151 13.5714C16.1495 12.1996 18.0264 11.4441 20 11.4441C21.9736 11.4441 23.8504 12.1996 25.2848 13.5714C26.7141 14.9384 27.5532 16.771 27.6474 18.7316C27.6628 19.0518 27.5463 19.3643 27.3251 19.5963C27.104 19.8284 26.7974 19.9596 26.4768 19.9596Z" fill="#FDE047"/>
<path d="M25.2848 13.5714C23.8527 12.2018 21.9796 11.4467 20.0094 11.4442V19.9596H26.4768C26.7974 19.9596 27.1039 19.8283 27.3251 19.5963C27.5463 19.3642 27.6628 19.0517 27.6474 18.7316C27.5531 16.771 26.7142 14.9384 25.2848 13.5714Z" fill="#FACC15"/>
<path d="M32.8906 25.2735V18.7878C32.8906 18.1406 32.3659 17.6159 31.7188 17.6159H8.28125C7.63406 17.6159 7.10938 18.1406 7.10938 18.7878V25.2735H32.8906Z" fill="#DFE7F4"/>
<path d="M14.1406 25.2735V22.2768C14.1406 21.6296 13.6159 21.1049 12.9688 21.1049C12.3216 21.1049 11.7969 21.6296 11.7969 22.2768V25.2735H14.1406Z" fill="#F0F7FF"/>
<path d="M31.7187 17.6159H20.0095V25.2735H32.8906V18.7878C32.8906 18.1406 32.3659 17.6159 31.7187 17.6159Z" fill="#C7CFE1"/>
<path d="M18.8282 25.2735V22.2768C18.8282 21.6296 18.3036 21.1049 17.6564 21.1049C17.0092 21.1049 16.4845 21.6296 16.4845 22.2768V25.2735H18.8282Z" fill="#F0F7FF"/>
<path d="M23.5157 25.2735V22.2768C23.5157 21.6296 22.9911 21.1049 22.3439 21.1049C21.6967 21.1049 21.172 21.6296 21.172 22.2768V25.2735H23.5157Z" fill="#F0F7FF"/>
<path d="M28.2032 25.2735V22.2768C28.2032 21.6296 27.6786 21.1049 27.0314 21.1049C26.3842 21.1049 25.8595 21.6296 25.8595 22.2768V25.2735H28.2032Z" fill="#F0F7FF"/>
</svg>
