<svg width="40" height="40" viewBox="0 0 40 40" fill="none" xmlns="http://www.w3.org/2000/svg">
<g clip-path="url(#clip0_349_7512)">
<path d="M16.875 0H6.875C6.22813 0 5.70312 0.525 5.70312 1.17188V7.44766C5.70312 8.09531 6.22813 8.61953 6.875 8.61953H16.875C17.5219 8.61953 18.0469 8.09531 18.0469 7.44766V1.17188C18.0469 0.525 17.5219 0 16.875 0ZM15.7031 6.27578L11.8431 8.07266L8.04688 6.27578V2.34375H15.7031V6.27578Z" fill="#444956"/>
<path d="M18.0469 1.17188V7.44766C18.0469 8.09531 17.5219 8.61953 16.875 8.61953H11.843V8.15078L15.7032 6.27578V2.34375H11.843V0H16.875C17.5219 0 18.0469 0.525 18.0469 1.17188Z" fill="#000032"/>
<path d="M22.5781 10.625L22.1094 36.0156C22.1094 38.2641 20.6859 38.5156 18.4375 38.5156L11.2969 40H7.99531L6.95312 39.6094L5.65156 40H4.07812C1.82969 40 0 38.1703 0 35.9219V13.6406L0.46875 12.5L0 11.2969V10.3531C0 8.1047 1.82969 6.27423 4.07812 6.27423H5.7L6.79688 7.03126L8.04688 6.27423H11.2969L15.5469 7.96876L19.4531 7.10939C21.1542 12.282 22.5711 8.44322 22.5781 10.625Z" fill="#FDE047"/>
<path d="M23.6863 10.353V35.9216C23.6863 38.1702 21.8564 40 19.6078 40H11.8431V6.97766L13.0981 6.27454H19.6079C21.8565 6.27454 23.6863 8.1043 23.6863 10.353Z" fill="#FACC15"/>
<path d="M23.6859 11.2969H13.6406V6.27423H11.2969V11.2969H8.03656L8.04375 6.27423H5.7L5.69281 11.2969H0V13.6406H5.68945L5.65156 40H7.99531L8.0332 13.6406H11.2969V40H13.6406V13.6406H23.6859V11.2969Z" fill="#EAB308"/>
<path d="M23.6863 11.2941H13.0981V6.27454H11.8431V40H13.0981V13.647H23.6863V11.2941Z" fill="#CA8A04"/>
<path d="M29.0729 16.3137H22.2211C20.0015 16.3137 18.196 18.1192 18.196 20.3388V22.5098C18.196 23.1592 18.7231 23.6863 19.3725 23.6863H31.9215C32.571 23.6863 33.098 23.1593 33.098 22.5098V20.3388C33.098 18.1192 31.2925 16.3137 29.0729 16.3137ZM30.745 21.3333L25.647 22.5052L20.5489 21.3333V20.3388C20.5489 19.4165 21.2987 18.6666 22.2211 18.6666H29.0729C29.9953 18.6666 30.7451 19.4164 30.7451 20.3388V21.3333H30.745Z" fill="#444956"/>
<path d="M33.098 20.3388V22.5098C33.098 23.1592 32.571 23.6863 31.9215 23.6863H25.647V22.8177L30.745 21.3333V20.3388C30.745 19.4165 29.9952 18.6666 29.0728 18.6666H25.647V16.3137H29.0728C31.2925 16.3137 33.098 18.1192 33.098 20.3388Z" fill="#000032"/>
<path d="M40 24.7122V36.6212C40 38.4839 38.484 40 36.6212 40H14.673C12.8103 40 11.2942 38.4839 11.2942 36.6212V24.7122C11.2942 22.8495 12.8103 21.3334 14.673 21.3334H36.6212C38.484 21.3334 40 22.8494 40 24.7122Z" fill="#2B6049"/>
<path d="M39.9999 24.7122V36.6212C39.9999 38.4839 38.4838 40 36.6211 40H25.647V21.3334H36.6211C38.4838 21.3334 39.9999 22.8494 39.9999 24.7122Z" fill="#234D3A"/>
<path d="M20.3515 26.8769C19.9911 26.3362 19.2606 26.1901 18.72 26.5505L16.8377 27.8055C15.8663 28.453 16.3383 29.9609 17.4913 29.9609C17.9642 29.9609 18.0241 29.8424 20.0252 28.5084C20.5658 28.1479 20.7119 27.4174 20.3515 26.8769Z" fill="#DFE7F4"/>
<path d="M33.1765 32.6274H31.2942C30.6444 32.6274 30.1177 33.1542 30.1177 33.8039C30.1177 34.4537 30.6444 34.9804 31.2942 34.9804H33.1765C33.8263 34.9804 34.353 34.4537 34.353 33.8039C34.353 33.1542 33.8262 32.6274 33.1765 32.6274Z" fill="#C7CFE1"/>
<path d="M28.7843 29.9608C29.7805 29.9608 30.5882 29.1531 30.5882 28.1569C30.5882 27.1606 29.7805 26.353 28.7843 26.353C27.788 26.353 26.9803 27.1606 26.9803 28.1569C26.9803 29.1531 27.788 29.9608 28.7843 29.9608Z" fill="#FACC15"/>
<path d="M23.1373 34.3529C24.1336 34.3529 24.9412 33.5452 24.9412 32.549C24.9412 31.5527 24.1336 30.7451 23.1373 30.7451C22.141 30.7451 21.3334 31.5527 21.3334 32.549C21.3334 33.5452 22.141 34.3529 23.1373 34.3529Z" fill="#FDE047"/>
</g>
<defs>
<clipPath id="clip0_349_7512">
<rect width="40" height="40" fill="white"/>
</clipPath>
</defs>
</svg>
