<svg width="40" height="40" viewBox="0 0 40 40" fill="none" xmlns="http://www.w3.org/2000/svg">
<g clip-path="url(#clip0_349_7511)">
<path d="M23.2852 24.9792H4.10083C3.66935 24.9792 3.31958 25.329 3.31958 25.7605V29.1772C3.31958 29.6087 3.66935 29.9584 4.10083 29.9584H23.2852C23.7167 29.9584 24.0665 29.6087 24.0665 29.1772V25.7605C24.0665 25.3291 23.7167 24.9792 23.2852 24.9792Z" fill="#FACC15"/>
<path d="M23.2852 24.9792H13.693V29.9584H23.2852C23.7167 29.9584 24.0664 29.6087 24.0664 29.1772V25.7605C24.0664 25.3291 23.7167 24.9792 23.2852 24.9792Z" fill="#EAB308"/>
<path d="M19.9656 15.0208H0.78125C0.349766 15.0208 0 15.3705 0 15.802V19.2188C0 19.6502 0.349766 20 0.78125 20H19.9656C20.3971 20 20.7469 19.6502 20.7469 19.2188V15.802C20.7469 15.3705 20.3971 15.0208 19.9656 15.0208Z" fill="#FACC15"/>
<path d="M19.9656 15.0208H10.3734V20H19.9656C20.3971 20 20.7469 19.6502 20.7469 19.2188V15.802C20.7469 15.3705 20.3971 15.0208 19.9656 15.0208Z" fill="#EAB308"/>
<path d="M20.7955 5.06226H1.61108C1.1796 5.06226 0.829834 5.41202 0.829834 5.84351V9.26022C0.829834 9.69171 1.1796 10.0415 1.61108 10.0415H20.7955C21.2269 10.0415 21.5767 9.69171 21.5767 9.26022V5.84351C21.5768 5.41202 21.2269 5.06226 20.7955 5.06226Z" fill="#FACC15"/>
<path d="M20.7956 5.06226H11.2034V10.0415H20.7956C21.227 10.0415 21.5768 9.69171 21.5768 9.26022V5.84351C21.5768 5.41202 21.227 5.06226 20.7956 5.06226Z" fill="#EAB308"/>
<path d="M19.9656 29.9585H0.78125C0.349766 29.9585 0 30.3083 0 30.7398V34.1565C0 34.588 0.349766 34.9377 0.78125 34.9377H19.9656C20.3971 34.9377 20.7469 34.588 20.7469 34.1565V30.7398C20.7469 30.3083 20.3971 29.9585 19.9656 29.9585Z" fill="#FDE047"/>
<path d="M19.9656 29.9585H10.3734V34.9377H19.9656C20.3971 34.9377 20.7469 34.588 20.7469 34.1565V30.7398C20.7469 30.3083 20.3971 29.9585 19.9656 29.9585Z" fill="#FACC15"/>
<path d="M21.6254 20H2.44104C2.00956 20 1.65979 20.3498 1.65979 20.7812V24.198C1.65979 24.6295 2.00956 24.9792 2.44104 24.9792H21.6254C22.0569 24.9792 22.4067 24.6295 22.4067 24.198V20.7812C22.4067 20.3498 22.0569 20 21.6254 20Z" fill="#FDE047"/>
<path d="M21.6254 20H12.0332V24.9792H21.6254C22.0569 24.9792 22.4066 24.6295 22.4066 24.198V20.7812C22.4066 20.3498 22.0569 20 21.6254 20Z" fill="#FACC15"/>
<path d="M22.4552 10.0415H3.27087C2.83939 10.0415 2.48962 10.3912 2.48962 10.8227V14.2394C2.48962 14.6709 2.83939 15.0207 3.27087 15.0207H22.4552C22.8867 15.0207 23.2365 14.6709 23.2365 14.2394V10.8227C23.2365 10.3912 22.8867 10.0415 22.4552 10.0415Z" fill="#FDE047"/>
<path d="M22.4552 10.0415H12.863V15.0207H22.4552C22.8867 15.0207 23.2365 14.6709 23.2365 14.2394V10.8227C23.2365 10.3912 22.8867 10.0415 22.4552 10.0415Z" fill="#FACC15"/>
<path d="M28.3817 34.9378C34.7983 34.9378 40 29.7361 40 23.3195C40 16.9029 34.7983 11.7013 28.3817 11.7013C21.9651 11.7013 16.7634 16.9029 16.7634 23.3195C16.7634 29.7361 21.9651 34.9378 28.3817 34.9378Z" fill="#FDE047"/>
<path d="M28.3817 11.7013V34.9377C34.7984 34.9377 40 29.7361 40 23.3195C40 16.903 34.7984 11.7013 28.3817 11.7013Z" fill="#FACC15"/>
<path d="M29.8322 22.4717C29.6046 22.3913 29.372 22.307 29.1398 22.2194V18.3541C29.4567 18.4148 29.7637 18.5586 29.9989 18.8436C30.2907 19.197 30.8136 19.2473 31.1671 18.9555C31.5207 18.6639 31.5708 18.1408 31.2791 17.7873C31.0435 17.5019 30.353 16.8075 29.1398 16.6721V16.0263C29.1398 15.568 28.7682 15.1965 28.31 15.1965C27.8517 15.1965 27.4801 15.568 27.4801 16.0263V16.8267C27.3571 16.8605 27.2317 16.8982 27.1025 16.943C25.9341 17.3481 25.0779 18.3789 24.8681 19.6333C24.6831 20.7396 25.0419 21.7682 25.8278 22.3847C26.2475 22.7138 26.7685 23.0153 27.48 23.333V28.1061C26.851 28.0574 26.4503 27.9015 25.7656 27.4536C25.3817 27.2024 24.8675 27.3103 24.6168 27.6937C24.3659 28.0773 24.4735 28.5917 24.857 28.8425C25.8803 29.5118 26.5816 29.7154 27.4801 29.7687V30.6127C27.4801 31.071 27.8517 31.4426 28.31 31.4426C28.7682 31.4426 29.1398 31.071 29.1398 30.6127V29.6981C29.8307 29.5549 30.4577 29.2358 30.9825 28.7537C31.6382 28.1512 32.0807 27.335 32.2285 26.4554C32.5309 24.6569 31.5903 23.0931 29.8322 22.4717ZM26.8521 21.0787C26.5514 20.8428 26.4217 20.4049 26.505 19.9069C26.5839 19.4355 26.882 18.8614 27.48 18.5799V21.4839C27.2443 21.3541 27.0312 21.2191 26.8521 21.0787ZM30.5918 26.1802C30.4712 26.8979 29.9777 27.6598 29.1398 27.9751V23.9868C29.1864 24.0034 29.2314 24.0198 29.279 24.0366C30.7444 24.5546 30.6543 25.8083 30.5918 26.1802Z" fill="#2B6049"/>
<path d="M29.8322 22.4717C29.6046 22.3913 29.372 22.307 29.1398 22.2194V18.3541C29.4568 18.4148 29.7637 18.5586 29.9989 18.8436C30.2907 19.197 30.8136 19.2473 31.1671 18.9555C31.5207 18.6639 31.5708 18.1409 31.2791 17.7873C31.0436 17.5019 30.353 16.8075 29.1398 16.6721V16.0263C29.1398 15.5923 28.8064 15.2366 28.3818 15.2001V31.4389C28.8064 31.4024 29.1398 31.0467 29.1398 30.6126V29.698C29.8307 29.5548 30.4577 29.2358 30.9825 28.7536C31.6382 28.1512 32.0807 27.3349 32.2286 26.4553C32.5309 24.6569 31.5903 23.0931 29.8322 22.4717ZM30.5918 26.1802C30.4712 26.8979 29.9777 27.6598 29.1398 27.9751V23.9868C29.1864 24.0034 29.2314 24.0198 29.279 24.0366C30.7444 24.5546 30.6543 25.8083 30.5918 26.1802Z" fill="#234D3A"/>
</g>
<defs>
<clipPath id="clip0_349_7511">
<rect width="40" height="40" fill="white"/>
</clipPath>
</defs>
</svg>
