<svg width="20" height="20" viewBox="0 0 20 20" fill="none" xmlns="http://www.w3.org/2000/svg">
<g clip-path="url(#clip0_333_4391)">
<path d="M13.4003 8.80525L9.78751 5.19243C9.55868 4.96361 9.18771 4.96361 8.95888 5.19243L6.86278 7.28853L6.02189 6.44767C5.79306 6.21884 5.42208 6.21884 5.19325 6.44767L0.172433 11.4685C-0.198387 11.8393 0.070011 12.4688 0.58673 12.4688H11.8828C13.7947 12.4688 14.7522 10.1572 13.4003 8.80525Z" fill="#464B52"/>
<path d="M13.4003 8.80524L10 5.40497V12.4688H11.8828C13.7947 12.4688 14.7522 10.1572 13.4003 8.80524Z" fill="#292B2F"/>
<path d="M17.9079 12.4688H11.8829C10.7292 12.4688 9.79065 11.5302 9.79065 10.3765C9.79065 9.22287 10.7292 8.28435 11.8829 8.28435C12.1945 8.28435 12.4971 8.35283 12.7726 8.48244C13.3065 7.8847 14.0759 7.53119 14.8954 7.53119C15.7149 7.53119 16.4843 7.8847 17.0181 8.48244C17.2936 8.35283 17.5963 8.28435 17.9079 8.28435C19.0615 8.28435 20.0001 9.22287 20.0001 10.3765C20.0001 11.5302 19.0615 12.4688 17.9079 12.4688Z" fill="#99B9AB"/>
<path d="M6.86199 4.30988H1.84113C0.825937 4.30988 0 3.48395 0 2.46875C0 1.45355 0.825937 0.627578 1.84113 0.627578C2.09074 0.627578 2.33383 0.6775 2.55828 0.7725C3.01895 0.285937 3.665 0 4.35156 0C5.03813 0 5.68418 0.285937 6.14484 0.7725C6.3693 0.677461 6.61238 0.627578 6.86199 0.627578C7.87719 0.627578 8.70312 1.45355 8.70312 2.46875C8.70312 3.48395 7.87719 4.30988 6.86199 4.30988Z" fill="#F9FAFB"/>
<path d="M16.2761 5.56512C14.9148 5.56512 13.8074 4.45762 13.8074 3.09637C13.8074 1.73512 14.9149 0.627625 16.2761 0.627625C17.6374 0.627625 18.7448 1.73512 18.7448 3.09637C18.7448 4.45762 17.6374 5.56512 16.2761 5.56512Z" fill="#FDE047"/>
<path d="M16.2761 0.627563C17.6374 0.627563 18.7448 1.73506 18.7448 3.09631C18.7448 4.45756 17.6374 5.56506 16.2761 5.56506V0.627563Z" fill="#FACC15"/>
<path d="M6.86199 4.30988C7.87719 4.30988 8.70312 3.48395 8.70312 2.46875C8.70312 1.45355 7.87719 0.627578 6.86199 0.627578C6.61238 0.627578 6.3693 0.677461 6.14484 0.7725C5.68418 0.285937 5.03813 0 4.35156 0V4.30988H6.86199Z" fill="#E5E7EB"/>
<path d="M17.9078 12.4688C19.0614 12.4688 20 11.5302 20 10.3765C20 9.22285 19.0614 8.28434 17.9078 8.28434C17.5962 8.28434 17.2935 8.35281 17.018 8.48242C16.4842 7.88477 15.7148 7.53125 14.8953 7.53125V12.4688H17.9078Z" fill="#568A73"/>
<path d="M19.4141 20H0.585938C0.262344 20 0 19.7377 0 19.4141V11.8828C0 11.5592 0.262344 11.2969 0.585938 11.2969H19.4141C19.7377 11.2969 20 11.5592 20 11.8828V19.4141C20 19.7377 19.7377 20 19.4141 20Z" fill="#568A73"/>
<path d="M20 19.4141V11.8828C20 11.5592 19.7377 11.2969 19.4141 11.2969H10V20H19.4141C19.7377 20 20 19.7377 20 19.4141Z" fill="#2B6048"/>
<path d="M4.35156 16.2344H0.585938C0.262344 16.2344 0 15.972 0 15.6484C0 15.3248 0.262344 15.0625 0.585938 15.0625H4.35156C4.67516 15.0625 4.9375 15.3248 4.9375 15.6484C4.9375 15.972 4.67516 16.2344 4.35156 16.2344Z" fill="#F3F5FA"/>
<path d="M19.4141 16.2344H15.6484C15.3248 16.2344 15.0625 15.972 15.0625 15.6484C15.0625 15.3248 15.3248 15.0625 15.6484 15.0625H19.4141C19.7377 15.0625 20 15.3248 20 15.6484C20 15.972 19.7377 16.2344 19.4141 16.2344Z" fill="#CFD6E1"/>
<path d="M11.8828 16.2344H8.11719C7.79359 16.2344 7.53125 15.972 7.53125 15.6484C7.53125 15.3248 7.79359 15.0625 8.11719 15.0625H11.8828C12.2064 15.0625 12.4688 15.3248 12.4688 15.6484C12.4688 15.972 12.2064 16.2344 11.8828 16.2344Z" fill="#F3F5FA"/>
<path d="M12.4688 15.6484C12.4688 15.3248 12.2064 15.0625 11.8828 15.0625H10V16.2344H11.8828C12.2064 16.2344 12.4688 15.972 12.4688 15.6484Z" fill="#CFD6E1"/>
</g>
<defs>
<clipPath id="clip0_333_4391">
<rect width="20" height="20" fill="white"/>
</clipPath>
</defs>
</svg>
