<svg width="20" height="20" viewBox="0 0 20 20" fill="none" xmlns="http://www.w3.org/2000/svg">
<g clip-path="url(#clip0_333_4389)">
<path d="M10.0001 17.6095C11.0289 17.6095 11.863 16.7755 11.863 15.7466C11.863 14.7177 11.0289 13.8836 10.0001 13.8836C8.97116 13.8836 8.13708 14.7177 8.13708 15.7466C8.13708 16.7755 8.97116 17.6095 10.0001 17.6095Z" fill="#568A73"/>
<path d="M19.4439 6.30247C16.7592 3.61783 13.3066 2.39044 10 2.39044C6.69336 2.39044 3.24078 3.61783 0.556055 6.30247C-0.185898 7.04529 -0.182499 8.19552 0.549141 8.93025C1.46281 9.85408 2.65906 9.48634 3.19473 8.93275C5.01324 7.11665 7.42984 6.1165 10 6.1165C12.5702 6.1165 14.9868 7.11665 16.8053 8.93275C17.3409 9.48634 18.5372 9.85408 19.4509 8.93025C20.1825 8.19556 20.1859 7.04533 19.4439 6.30247Z" fill="#FDE047"/>
<path d="M15.3802 10.3654C13.84 8.82555 11.8524 8.13684 10 8.13684C8.14762 8.13684 6.16001 8.82551 4.61981 10.3654C3.86837 11.1168 3.88333 12.2723 4.62731 13.0084C5.36602 13.7421 6.51536 13.739 7.25387 13.0005C7.98739 12.267 8.96262 11.8631 9.99997 11.8631C11.0373 11.8631 12.0125 12.267 12.7461 13.0005C13.4846 13.739 14.634 13.7421 15.3726 13.0084C16.1166 12.2723 16.1316 11.1168 15.3802 10.3654Z" fill="#FDE047"/>
<path d="M11.863 15.7466C11.863 14.7193 11.0272 13.8836 10 13.8836V17.6095C11.0272 17.6095 11.863 16.7738 11.863 15.7466Z" fill="#2B6048"/>
<path d="M19.4509 8.93025C20.1825 8.19552 20.1859 7.04532 19.4439 6.30247C16.7592 3.61782 13.3066 2.39044 10 2.39044V6.11654C12.5702 6.11654 14.9868 7.11669 16.8053 8.93279C17.341 9.48638 18.5372 9.85411 19.4509 8.93025Z" fill="#FACC15"/>
<path d="M15.3727 13.0084C16.1167 12.2723 16.1316 11.1168 15.3802 10.3654C13.84 8.82551 11.8524 8.13684 10 8.13684V11.8631C11.0373 11.8631 12.0126 12.267 12.7461 13.0005C13.4846 13.739 14.634 13.7421 15.3727 13.0084Z" fill="#FACC15"/>
</g>
<defs>
<clipPath id="clip0_333_4389">
<rect width="20" height="20" fill="white"/>
</clipPath>
</defs>
</svg>
