<svg width="18" height="20" viewBox="0 0 18 20" fill="none" xmlns="http://www.w3.org/2000/svg">
<path d="M6.63105 17.3096V14.754C6.63104 14.1039 7.16097 13.5758 7.81755 13.5714H10.2226C10.8823 13.5714 11.4171 14.1009 11.4171 14.754V14.754V17.3175C11.417 17.8694 11.8619 18.3205 12.4192 18.3334H14.0226C15.621 18.3334 16.9167 17.0506 16.9167 15.4683V15.4683V8.19828C16.9082 7.57577 16.6129 6.99121 16.115 6.61094L10.6315 2.23783C9.67082 1.47639 8.30521 1.47639 7.34456 2.23783L1.88506 6.61888C1.38526 6.9976 1.08953 7.58314 1.08337 8.20621V15.4683C1.08337 17.0506 2.3791 18.3334 3.97747 18.3334H5.58084C6.152 18.3334 6.61502 17.875 6.61502 17.3096V17.3096" stroke="#6B7280" stroke-width="1.5" stroke-linecap="round" stroke-linejoin="round"/>
</svg>
