<svg width="40" height="40" viewBox="0 0 40 40" fill="none" xmlns="http://www.w3.org/2000/svg">
<g clip-path="url(#clip0_349_7510)">
<path d="M0 10.5469V38.8281C0 39.4843 0.515547 40 1.17188 40H38.8281C39.4845 40 40 39.4843 40 38.8281V10.5469L18.7101 8.20312L0 10.5469Z" fill="#F0F7FF"/>
<path d="M20 8.63055V40H38.8281C39.4845 40 40 39.4843 40 38.8281V10.5469L20 8.63055Z" fill="#DFE7F4"/>
<path d="M40 1.17188V10.5469H0V1.17188C0 0.515547 0.515547 0 1.17188 0H38.8281C39.4845 0 40 0.515547 40 1.17188Z" fill="#2B6049"/>
<path d="M38.8281 0H20V10.5469H40V1.17188C40 0.515547 39.4845 0 38.8281 0Z" fill="#234D3A"/>
<path d="M15.3125 14.1406C9.49664 14.1406 4.76562 18.8716 4.76562 24.6875C4.76562 30.5034 9.49664 35.2344 15.3125 35.2344C21.1284 35.2344 25.8594 30.5034 25.8594 24.6875C25.8594 18.8716 21.1284 14.1406 15.3125 14.1406ZM23.3972 23.5156H19.9551C19.8485 21.1966 19.4352 18.9584 18.7101 17.2431C21.1941 18.3823 22.9918 20.7197 23.3972 23.5156ZM15.3125 32.8906C14.6856 32.8906 13.2383 30.4184 13.0141 25.8594H17.6109C17.3867 30.4184 15.9394 32.8906 15.3125 32.8906ZM13.0141 23.5156C13.2382 18.9566 14.6856 16.4844 15.3125 16.4844C15.9394 16.4844 17.3867 18.9566 17.6109 23.5156H13.0141ZM11.9149 17.2431C11.1898 18.9584 10.7765 21.1966 10.6699 23.5156H7.22781C7.6332 20.7197 9.43094 18.3823 11.9149 17.2431ZM7.22781 25.8594H10.6699C10.7765 28.1784 11.1898 30.4166 11.9149 32.1319C9.43094 30.9927 7.6332 28.6553 7.22781 25.8594ZM18.7101 32.1319C19.4352 30.4166 19.8485 28.1784 19.9551 25.8594H23.3972C22.9918 28.6553 21.1941 30.9927 18.7101 32.1319Z" fill="#FDE047"/>
<path d="M17.6109 23.5156H15.3125V25.8594H17.6109C17.3868 30.4184 15.9394 32.8906 15.3125 32.8906V35.2344C21.1284 35.2344 25.8594 30.5034 25.8594 24.6875C25.8594 18.8716 21.1284 14.1406 15.3125 14.1406V16.4844C15.9394 16.4844 17.3867 18.9566 17.6109 23.5156ZM23.3972 23.5156H19.9551C19.8485 21.1966 19.4352 18.9584 18.7101 17.2431C21.1941 18.3823 22.9918 20.7197 23.3972 23.5156ZM19.9551 25.8594H23.3972C22.9918 28.6553 21.1941 30.9927 18.7101 32.1319C19.4352 30.4166 19.8485 28.1784 19.9551 25.8594Z" fill="#FACC15"/>
<path d="M34.0625 6.44531C34.7097 6.44531 35.2344 5.92065 35.2344 5.27344C35.2344 4.62623 34.7097 4.10156 34.0625 4.10156C33.4153 4.10156 32.8906 4.62623 32.8906 5.27344C32.8906 5.92065 33.4153 6.44531 34.0625 6.44531Z" fill="#DFE7F4"/>
<path d="M29.375 6.44531C30.0222 6.44531 30.5469 5.92065 30.5469 5.27344C30.5469 4.62623 30.0222 4.10156 29.375 4.10156C28.7278 4.10156 28.2031 4.62623 28.2031 5.27344C28.2031 5.92065 28.7278 6.44531 29.375 6.44531Z" fill="#DFE7F4"/>
<path d="M24.6875 6.44531C25.3347 6.44531 25.8594 5.92065 25.8594 5.27344C25.8594 4.62623 25.3347 4.10156 24.6875 4.10156C24.0403 4.10156 23.5156 4.62623 23.5156 5.27344C23.5156 5.92065 24.0403 6.44531 24.6875 6.44531Z" fill="#DFE7F4"/>
<path d="M34.0625 21.1719H29.375C28.7273 21.1719 28.2031 20.6477 28.2031 20C28.2031 19.3523 28.7273 18.8281 29.375 18.8281H34.0625C34.7102 18.8281 35.2344 19.3523 35.2344 20C35.2344 20.6477 34.7102 21.1719 34.0625 21.1719Z" fill="#C7CFE1"/>
<path d="M34.0625 25.8594H29.375C28.7273 25.8594 28.2031 25.3352 28.2031 24.6875C28.2031 24.0398 28.7273 23.5156 29.375 23.5156H34.0625C34.7102 23.5156 35.2344 24.0398 35.2344 24.6875C35.2344 25.3352 34.7102 25.8594 34.0625 25.8594Z" fill="#C7CFE1"/>
<path d="M34.0625 30.5469H29.375C28.7273 30.5469 28.2031 30.0227 28.2031 29.375C28.2031 28.7273 28.7273 28.2031 29.375 28.2031H34.0625C34.7102 28.2031 35.2344 28.7273 35.2344 29.375C35.2344 30.0227 34.7102 30.5469 34.0625 30.5469Z" fill="#C7CFE1"/>
</g>
<defs>
<clipPath id="clip0_349_7510">
<rect width="40" height="40" fill="white"/>
</clipPath>
</defs>
</svg>
