<svg width="20" height="20" viewBox="0 0 20 20" fill="none" xmlns="http://www.w3.org/2000/svg">
<path d="M17.9203 20H10.6937L10.1078 19.2188L9.52183 20H2.29527C2.12749 20 1.96781 19.9281 1.85659 19.8025C1.74538 19.6769 1.69335 19.5096 1.71367 19.3431L2.10429 16.14L2.49511 13.0132L3.56933 4.41949C3.60085 4.16727 3.65805 3.72781 3.65805 3.72781C3.65805 3.72781 3.78917 2.66063 3.81347 2.46637L4.05761 0.513242C4.09425 0.220039 4.34351 0 4.63902 0H9.52183L10.1078 0.78125L10.6937 0H15.5765C15.872 0 16.1213 0.220039 16.1579 0.513281L16.4509 2.85703L16.9881 7.1543L18.5017 19.3418C18.5225 19.5085 18.4706 19.6761 18.3594 19.802C18.2481 19.9278 18.0883 20 17.9203 20Z" fill="#347357"/>
<path fill-rule="evenodd" clip-rule="evenodd" d="M10.1078 19.2188L10.6937 20H17.9203C18.0883 20 18.2481 19.9278 18.3594 19.802C18.4706 19.6761 18.5225 19.5085 18.5018 19.3418L16.9881 7.1543L16.4509 2.85703L16.158 0.513281C16.1213 0.220039 15.872 0 15.5765 0H10.6937L10.1078 0.78125L10.0854 0.751455V19.2485L10.1078 19.2188Z" fill="#2B6049"/>
<path d="M10.6919 20H9.52002V17.7734C9.52002 17.4498 9.78236 17.1875 10.106 17.1875C10.4296 17.1875 10.6919 17.4498 10.6919 17.7734V20Z" fill="#FDE047"/>
<path d="M10.106 15.625C9.78236 15.625 9.52002 15.3627 9.52002 15.0391V13.4766C9.52002 13.153 9.78236 12.8906 10.106 12.8906C10.4296 12.8906 10.6919 13.153 10.6919 13.4766V15.0391C10.6919 15.3627 10.4296 15.625 10.106 15.625Z" fill="#FDE047"/>
<path d="M10.106 11.3281C9.78236 11.3281 9.52002 11.0658 9.52002 10.7422V9.17969C9.52002 8.85609 9.78236 8.59375 10.106 8.59375C10.4296 8.59375 10.6919 8.85609 10.6919 9.17969V10.7422C10.6919 11.0658 10.4296 11.3281 10.106 11.3281Z" fill="#FDE047"/>
<path d="M10.106 7.03125C9.78236 7.03125 9.52002 6.76891 9.52002 6.44531V4.88281C9.52002 4.55922 9.78236 4.29688 10.106 4.29688C10.4296 4.29688 10.6919 4.55922 10.6919 4.88281V6.44531C10.6919 6.76891 10.4296 7.03125 10.106 7.03125Z" fill="#FDE047"/>
<path d="M10.106 2.73438C9.78236 2.73438 9.52002 2.47203 9.52002 2.14844V0H10.6919V2.14844C10.6919 2.47203 10.4296 2.73438 10.106 2.73438Z" fill="#FDE047"/>
<path d="M10.6976 20V17.7734C10.6976 17.4498 10.4353 17.1875 10.1117 17.1875V20H10.6976Z" fill="#FACC15"/>
<path d="M10.6976 15.0391V13.4766C10.6976 13.153 10.4353 12.8906 10.1117 12.8906V15.625C10.4353 15.625 10.6976 15.3627 10.6976 15.0391Z" fill="#FACC15"/>
<path d="M10.6976 10.7422V9.17969C10.6976 8.85609 10.4353 8.59375 10.1117 8.59375V11.3281C10.4353 11.3281 10.6976 11.0658 10.6976 10.7422Z" fill="#FACC15"/>
<path d="M10.6976 6.44531V4.88281C10.6976 4.55922 10.4353 4.29688 10.1117 4.29688V7.03125C10.4353 7.03125 10.6976 6.76891 10.6976 6.44531Z" fill="#FACC15"/>
<path d="M10.6976 2.14844V0H10.1117V2.73438C10.4353 2.73438 10.6976 2.47203 10.6976 2.14844Z" fill="#FACC15"/>
</svg>
