<svg width="40" height="40" viewBox="0 0 40 40" fill="none" xmlns="http://www.w3.org/2000/svg">
<g clip-path="url(#clip0_349_7509)">
<path d="M37.5782 16.0156V34.375C37.5782 34.6414 37.4891 34.8867 37.3391 35.0836L35.2345 31.7016V16.0156H37.5782Z" fill="#000032"/>
<path d="M4.76677 16.0156V31.6211L2.57856 35.1141C2.47935 34.943 2.4231 34.7438 2.4231 34.5312V16.0156H4.76677Z" fill="#444956"/>
<path d="M38.8281 0H1.1731C0.525908 0 0.0012207 0.524687 0.0012207 1.17188V15.2344C0.0012207 15.8816 0.525908 16.4062 1.1731 16.4062H38.8281C39.4753 16.4062 40 15.8816 40 15.2344V1.17188C40 0.524687 39.4753 0 38.8281 0Z" fill="#F0F7FF"/>
<path d="M40 1.17188V15.2344C40 15.8812 39.475 16.4062 38.8281 16.4062H20.0006V0H38.8281C39.475 0 40 0.525 40 1.17188Z" fill="#DFE7F4"/>
<path d="M2.34497 2.34375H37.6564V14.0625H2.34497V2.34375Z" fill="#FDE047"/>
<path d="M20.0006 2.34375H37.6563V14.0625H20.0006V2.34375Z" fill="#FACC15"/>
<path d="M38.7524 40H1.17544C0.251217 40 -0.307298 38.9844 0.180123 38.2063L11.9766 19.3781C12.1907 19.0359 12.5657 18.8281 12.9696 18.8281H27.0316C27.4355 18.8281 27.8113 19.0359 28.0254 19.3789L39.7437 38.207C40.2304 38.9859 39.6695 39.9977 38.7524 40Z" fill="#568A73"/>
<path d="M38.7524 40H20.0006V18.8281H27.0316C27.4355 18.8281 27.8113 19.0359 28.0254 19.3789L39.7437 38.207C40.2305 38.9859 39.6695 39.9977 38.7524 40Z" fill="#2B6048"/>
<path d="M21.1725 18.8281V23.4375C21.1725 24.0844 20.6475 24.6094 20.0006 24.6094C19.3537 24.6094 18.8287 24.0844 18.8287 23.4375V18.8281H21.1725Z" fill="#FDE047"/>
<path d="M21.1725 18.8281V23.4375C21.1725 24.0844 20.6475 24.6094 20.0006 24.6094V18.8281H21.1725Z" fill="#FACC15"/>
<path d="M21.1725 35.1562V40H18.8289V35.1562C18.8289 34.5094 19.3539 33.9844 20.0007 33.9844C20.6475 33.9844 21.1725 34.5094 21.1725 35.1562Z" fill="#FDE047"/>
<path d="M21.1725 35.1562V40H20.0006V33.9844C20.6475 33.9844 21.1725 34.5094 21.1725 35.1562Z" fill="#FACC15"/>
<path d="M20.0006 26.9531C19.3534 26.9531 18.8287 27.4778 18.8287 28.125V30.4688C18.8287 31.1159 19.3534 31.6406 20.0006 31.6406C20.6478 31.6406 21.1725 31.1159 21.1725 30.4688V28.125C21.1725 27.4778 20.6478 26.9531 20.0006 26.9531Z" fill="#FDE047"/>
<path d="M21.1725 28.125V30.4688C21.1725 31.1156 20.6475 31.6406 20.0006 31.6406V26.9531C20.6475 26.9531 21.1725 27.4781 21.1725 28.125Z" fill="#FACC15"/>
<path d="M18.4382 9.375H8.28223C7.63504 9.375 7.11035 9.89969 7.11035 10.5469C7.11035 11.1941 7.63504 11.7188 8.28223 11.7188H18.4382C19.0854 11.7188 19.61 11.1941 19.61 10.5469C19.61 9.89969 19.0854 9.375 18.4382 9.375Z" fill="#DFE7F4"/>
<path d="M18.4382 9.375H8.28223C7.63504 9.375 7.11035 9.89969 7.11035 10.5469C7.11035 11.1941 7.63504 11.7188 8.28223 11.7188H18.4382C19.0854 11.7188 19.61 11.1941 19.61 10.5469C19.61 9.89969 19.0854 9.375 18.4382 9.375Z" fill="#F0F7FF"/>
<path d="M21.563 4.6875H8.36035C7.71316 4.6875 7.18848 5.21219 7.18848 5.85938C7.18848 6.50656 7.71316 7.03125 8.36035 7.03125H21.5631C22.2103 7.03125 22.735 6.50656 22.735 5.85938C22.735 5.21219 22.2102 4.6875 21.563 4.6875Z" fill="#F0F7FF"/>
<path d="M22.7349 5.85938C22.7349 6.50625 22.2099 7.03125 21.563 7.03125H20.0006V4.6875H21.563C22.2099 4.6875 22.7349 5.2125 22.7349 5.85938Z" fill="#DFE7F4"/>
<path d="M32.7842 7.62508L30.1878 5.02867C29.7302 4.57109 28.9882 4.57109 28.5306 5.02867L26.0448 7.51461C25.5871 7.97219 25.5871 8.71422 26.0448 9.17187C26.5024 9.62945 27.2444 9.62945 27.702 9.17187L28.1874 8.6864V10.5948C28.1874 11.242 28.7121 11.7666 29.3593 11.7666C30.0065 11.7666 30.5312 11.242 30.5312 10.5948V8.6864L31.1271 9.28234C31.5848 9.74 32.3267 9.74 32.7843 9.28234C33.2418 8.82469 33.2418 8.08265 32.7842 7.62508Z" fill="#DFE7F4"/>
</g>
<defs>
<clipPath id="clip0_349_7509">
<rect width="40" height="40" fill="white"/>
</clipPath>
</defs>
</svg>
