<svg width="40" height="40" viewBox="0 0 40 40" fill="none" xmlns="http://www.w3.org/2000/svg">
<g clip-path="url(#clip0_351_8220)">
<path d="M15.3286 27.2262V37.4452C15.3286 38.8572 14.1858 40 12.7738 40H2.55477C1.14454 40 0 38.8572 0 37.4452V27.2262C0 25.8159 1.14454 24.6714 2.55477 24.6714H12.7738C14.1858 24.6714 15.3286 25.8159 15.3286 27.2262Z" fill="#F0F7FF"/>
<path d="M15.3286 6.5121V16.7312C15.3286 18.1414 14.1858 19.2859 12.7738 19.2859H2.55477C1.14454 19.2859 0 18.1414 0 16.7312V6.5121C0 5.10017 1.14454 3.95734 2.55477 3.95734H12.7738C14.1858 3.95734 15.3286 5.10017 15.3286 6.5121Z" fill="#F0F7FF"/>
<path d="M39.9856 9.78221C39.9856 10.4584 39.7165 11.109 39.2379 11.5876L32.0113 18.8142C31.514 19.3132 30.8599 19.5619 30.2059 19.5619C29.5519 19.5619 28.8979 19.3132 28.3988 18.8142L21.1723 11.5876C20.6937 11.109 20.4246 10.4584 20.4246 9.78221C20.4246 9.10434 20.6937 8.45373 21.1723 7.97513L28.3988 0.748547C29.3969 -0.249516 31.0149 -0.249516 32.0113 0.748547L39.2379 7.97513C39.7165 8.45373 39.9856 9.10434 39.9856 9.78221Z" fill="#FACC15"/>
<path d="M30.2059 19.5618C29.5519 19.5618 28.8979 19.3132 28.3988 18.8142L21.1723 11.5876C20.6937 11.109 20.4246 10.4584 20.4246 9.7822C20.4246 9.10433 20.6937 8.45372 21.1723 7.97513L28.3988 0.748542C29.3333 3.73522e-06 29.6667 -1.83936e-08 30 0L30.2059 19.5618Z" fill="#FDE047"/>
<path d="M35.7532 27.2262V37.4452C35.7532 38.8572 34.6103 40 33.1984 40H22.9793C21.5691 40 20.4246 38.8572 20.4246 37.4452V27.2262C20.4246 25.8159 21.5691 24.6714 22.9793 24.6714H33.1984C34.6103 24.6714 35.7532 25.8159 35.7532 27.2262Z" fill="#DFE7F4"/>
<path d="M15.3286 6.49337V16.7124C15.3286 18.1227 14.1858 19.2672 12.7738 19.2672H7.66431V3.9386H12.7738C14.1858 3.9386 15.3286 5.08143 15.3286 6.49337Z" fill="#DFE7F4"/>
<path d="M15.3286 27.2262V37.4452C15.3286 38.8572 14.1858 40 12.7738 40H7.66431V24.6714H12.7738C14.1858 24.6714 15.3286 25.8159 15.3286 27.2262Z" fill="#DFE7F4"/>
</g>
<defs>
<clipPath id="clip0_351_8220">
<rect width="40" height="40" fill="white"/>
</clipPath>
</defs>
</svg>
