<svg width="40" height="40" viewBox="0 0 40 40" fill="none" xmlns="http://www.w3.org/2000/svg">
<g clip-path="url(#clip0_349_7515)">
<path d="M38.8281 18.8281H32.8906C32.2434 18.8281 31.7188 19.3528 31.7188 20C31.7188 25.6695 27.6927 30.3983 22.3438 31.4841V26.6306C25.0745 25.6653 27.0312 23.0614 27.0312 20C27.0312 19.3528 26.5066 18.8281 25.8594 18.8281H23.5156C22.8684 18.8281 22.3438 19.3528 22.3438 20C22.3438 21.2945 21.2945 22.3438 20 22.3438C18.7055 22.3438 17.6562 21.2945 17.6562 20C17.6562 19.3528 17.1316 18.8281 16.4844 18.8281H14.1406C13.4934 18.8281 12.9688 19.3528 12.9688 20C12.9688 23.0614 14.9255 25.6653 17.6562 26.6306V31.4841C12.3073 30.3983 8.28125 25.6695 8.28125 20C8.28125 19.3528 7.75656 18.8281 7.10938 18.8281H1.17188C0.524687 18.8281 0 19.3528 0 20C0 20.6472 0.524687 21.1719 1.17188 21.1719H2.46125C2.5107 21.9279 2.60719 22.6747 2.7507 23.4087L1.51016 23.7411C0.885 23.9086 0.514063 24.5512 0.681562 25.1763C0.849063 25.8015 1.49164 26.1724 2.1168 26.0049L3.35438 25.6733C3.5968 26.3865 3.88516 27.0827 4.21812 27.7584L3.10852 28.3991C2.54805 28.7227 2.35602 29.4394 2.67961 29.9998C3.0032 30.5603 3.71992 30.7523 4.28039 30.4288L5.39266 29.7866C5.81023 30.407 6.27008 31.0034 6.76969 31.5729L5.85781 32.4849C5.40016 32.9426 5.40016 33.6845 5.85781 34.1422C6.31547 34.5998 7.05742 34.5998 7.51508 34.1422L8.42688 33.2304C8.99641 33.73 9.59281 34.1898 10.2132 34.6074L9.57102 35.7197C9.24742 36.2802 9.43945 36.9969 9.99992 37.3205C10.5604 37.6441 11.2771 37.452 11.6007 36.8916L12.2413 35.782C12.917 36.1149 13.6133 36.4033 14.3265 36.6457L13.9948 37.8833C13.8273 38.5084 14.1983 39.151 14.8234 39.3185C15.4486 39.486 16.0912 39.1151 16.2587 38.4899L16.5911 37.2494C17.3251 37.3928 18.0719 37.4894 18.8279 37.5388V38.8281C18.8279 39.4753 19.3526 40 19.9998 40C20.647 40 21.1716 39.4753 21.1716 38.8281V37.5387C21.9277 37.4893 22.6745 37.3928 23.4084 37.2493L23.7409 38.4898C23.9084 39.115 24.5509 39.4859 25.1761 39.3184C25.8013 39.1509 26.1722 38.5084 26.0047 37.8832L25.673 36.6456C26.3862 36.4032 27.0825 36.1148 27.7582 35.7819L28.3988 36.8915C28.7224 37.452 29.4391 37.644 29.9996 37.3204C30.5601 36.9968 30.7521 36.2801 30.4285 35.7196L29.7863 34.6073C30.4068 34.1898 31.0031 33.7299 31.5727 33.2303L32.4845 34.1421C32.9421 34.5998 33.6841 34.5998 34.1417 34.1421C34.5994 33.6845 34.5994 32.9425 34.1417 32.4848L33.2299 31.573C33.7295 31.0035 34.1894 30.4071 34.607 29.7867L35.7192 30.4289C36.2797 30.7525 36.9964 30.5605 37.32 30C37.6436 29.4395 37.4516 28.7228 36.8911 28.3992L35.7815 27.7586C36.1145 27.0829 36.4028 26.3866 36.6452 25.6734L37.8828 26.0051C38.508 26.1726 39.1505 25.8016 39.318 25.1765C39.4855 24.5513 39.1146 23.9088 38.4895 23.7413L37.2489 23.4088C37.3923 22.6748 37.4889 21.928 37.5384 21.172H38.8281C39.4753 21.172 40 20.6473 40 20.0002C40 19.3528 39.4753 18.8281 38.8281 18.8281Z" fill="#568A73"/>
<path d="M20 40C20.6473 40 21.1719 39.4753 21.1719 38.8282V37.5388C21.9279 37.4893 22.6747 37.3928 23.4087 37.2493L23.7411 38.4899C23.9086 39.115 24.5512 39.486 25.1763 39.3185C25.8015 39.151 26.1724 38.5084 26.0049 37.8832L25.6733 36.6457C26.3865 36.4032 27.0827 36.1149 27.7584 35.7819L28.3991 36.8915C28.7227 37.452 29.4394 37.644 29.9998 37.3204C30.5603 36.9968 30.7523 36.2801 30.4288 35.7196L29.7866 34.6074C30.407 34.1898 31.0034 33.7299 31.5729 33.2303L32.4847 34.1421C32.9423 34.5998 33.6843 34.5998 34.142 34.1421C34.5996 33.6845 34.5996 32.9425 34.142 32.4849L33.2302 31.5731C33.7298 31.0035 34.1896 30.4071 34.6072 29.7867L35.7195 30.4289C36.2799 30.7525 36.9966 30.5605 37.3202 30C37.6438 29.4396 37.4518 28.7228 36.8913 28.3992L35.7817 27.7586C36.1147 27.0829 36.403 26.3867 36.6455 25.6735L37.883 26.0051C38.5082 26.1726 39.1508 25.8017 39.3183 25.1765C39.4858 24.5514 39.1148 23.9088 38.4897 23.7413L37.2491 23.4089C37.3926 22.6749 37.4891 21.9281 37.5386 21.1721H38.8281C39.4753 21.1721 40 20.6474 40 20.0002C40 19.353 39.4753 18.8283 38.8281 18.8283H32.8906C32.2434 18.8283 31.7188 19.353 31.7188 20.0002C31.7188 25.6696 27.6927 30.3985 22.3438 31.4843V26.6308C25.0745 25.6655 27.0312 23.0616 27.0312 20.0002C27.0312 19.353 26.5066 18.8283 25.8594 18.8283H23.5156C22.8684 18.8283 22.3438 19.353 22.3438 20.0002C22.3438 21.2946 21.2945 22.3439 20 22.3439V40Z" fill="#347357"/>
<path d="M2.42188 15.3125V5.93749C2.42188 5.51194 2.65258 5.11976 3.02469 4.91312L10.0559 1.00687C10.4189 0.805226 10.8614 0.810617 11.2193 1.02132C11.5772 1.23187 11.7969 1.61609 11.7969 2.03124V3.94585L17.0872 1.00687C17.4501 0.805226 17.8927 0.810617 18.2505 1.02132C18.6084 1.23187 18.8281 1.61609 18.8281 2.03124V3.94585L24.1184 1.00687C24.4813 0.805226 24.9239 0.810617 25.2818 1.02132C25.6397 1.23187 25.8594 1.61609 25.8594 2.03124V15.3125H2.42188Z" fill="#F0F7FF"/>
<path d="M25.2817 1.02123C24.9238 0.810605 24.4812 0.805137 24.1184 1.00678L18.8281 3.94584V2.03123C18.8281 1.61607 18.6084 1.23186 18.2505 1.02123C17.8927 0.810605 17.45 0.805137 17.0871 1.00678L14.1406 2.64381V15.3125H25.8594V2.03123C25.8594 1.61607 25.6397 1.23186 25.2817 1.02123Z" fill="#DFE7F4"/>
<path d="M35.2272 1.0432C35.1616 0.449375 34.6598 0 34.0625 0H30.9375C30.3401 0 29.8383 0.449375 29.7727 1.0432L28.2102 15.1838H36.7897L35.2272 1.0432Z" fill="#F0F7FF"/>
<path d="M35.2273 1.0432C35.1616 0.449375 34.6598 0 34.0625 0H32.5V15.1838H36.7898L35.2273 1.0432Z" fill="#DFE7F4"/>
<path d="M7.5 15.3125V11.7969C7.5 11.1497 8.02469 10.625 8.67188 10.625H11.7969C12.4441 10.625 12.9688 11.1497 12.9688 11.7969V15.3125H7.5Z" fill="#DFE7F4"/>
<path d="M10.2344 10.625V15.3125H12.9688V11.7969C12.9688 11.1497 12.4441 10.625 11.7969 10.625H10.2344Z" fill="#C7CFE1"/>
<path d="M20 11.7969H18.4375C17.7903 11.7969 17.2656 11.2722 17.2656 10.625C17.2656 9.97781 17.7903 9.45312 18.4375 9.45312H20C20.6472 9.45312 21.1719 9.97781 21.1719 10.625C21.1719 11.2722 20.6472 11.7969 20 11.7969Z" fill="#C7CFE1"/>
<path d="M38.8281 16.4844H1.17188C0.524687 16.4844 0 15.9597 0 15.3125C0 14.6653 0.524687 14.1406 1.17188 14.1406H38.8281C39.4753 14.1406 40 14.6653 40 15.3125C40 15.9597 39.4753 16.4844 38.8281 16.4844Z" fill="#FDE047"/>
<path d="M38.8281 14.1406H20V16.4844H38.8281C39.4753 16.4844 40 15.9597 40 15.3125C40 14.6653 39.4753 14.1406 38.8281 14.1406Z" fill="#FACC15"/>
</g>
<defs>
<clipPath id="clip0_349_7515">
<rect width="40" height="40" fill="white"/>
</clipPath>
</defs>
</svg>
