<svg width="20" height="20" viewBox="0 0 20 20" fill="none" xmlns="http://www.w3.org/2000/svg">
<g clip-path="url(#clip0_333_4387)">
<path d="M5.69656 12.0949C4.95137 12.0949 4.26637 12.3562 3.72719 12.7914V11.0494C3.72719 10.324 4.31734 9.73386 5.04273 9.73386C5.36633 9.73386 5.62867 9.47152 5.62867 9.14792C5.62867 8.82433 5.36633 8.56198 5.04273 8.56198C4.55992 8.56198 4.1091 8.70073 3.72719 8.93972V5.7757C3.72719 5.4521 3.46484 5.18976 3.14125 5.18976C2.81766 5.18976 2.55531 5.4521 2.55531 5.7757V8.93972C2.1734 8.7007 1.72258 8.56198 1.23977 8.56198C0.916172 8.56198 0.653828 8.82433 0.653828 9.14792C0.653828 9.47152 0.916172 9.73386 1.23977 9.73386C1.96516 9.73386 2.55531 10.324 2.55531 11.0494V12.7914C2.01617 12.3562 1.33117 12.0949 0.585938 12.0949C0.262344 12.0949 0 12.3572 0 12.6808C0 13.0044 0.262344 13.2668 0.585938 13.2668C1.67184 13.2668 2.55531 14.1502 2.55531 15.2361V19.1593C2.55531 19.4829 2.81766 19.7453 3.14125 19.7453C3.46484 19.7453 3.72719 19.4829 3.72719 19.1593V15.2361C3.72719 14.1502 4.61063 13.2668 5.69656 13.2668C6.02016 13.2668 6.2825 13.0044 6.2825 12.6808C6.2825 12.3572 6.02016 12.0949 5.69656 12.0949Z" fill="#568A73"/>
<path d="M3.72717 19.1594V15.2362C3.72717 14.1502 4.61061 13.2668 5.69655 13.2668C6.02014 13.2668 6.28249 13.0044 6.28249 12.6808C6.28249 12.3573 6.02014 12.0949 5.69655 12.0949C4.95135 12.0949 4.26635 12.3562 3.72717 12.7914V11.0494C3.72717 10.3241 4.31733 9.73389 5.04272 9.73389C5.36631 9.73389 5.62866 9.47155 5.62866 9.14796C5.62866 8.82436 5.36631 8.56202 5.04272 8.56202C4.55991 8.56202 4.10909 8.70077 3.72717 8.93975V5.77573C3.72717 5.45214 3.46483 5.18979 3.14124 6.36167V19.7452L3.72717 19.1594Z" fill="#347357"/>
<path d="M4.51658 1.37531C4.51658 0.615742 3.90084 0 3.1413 0C2.38173 0 1.76599 0.615742 1.76599 1.37531V2.20766L3.12466 3.80687L4.51658 3.86359V1.37531Z" fill="#FFE590"/>
<path d="M4.51651 3.86355V1.37531C4.51651 0.615742 3.90077 0 3.14124 0V3.80754L4.51651 3.86355Z" fill="#FFD643"/>
<path d="M1.76599 2.20764V4.81346C1.76599 5.57303 2.38173 6.18877 3.1413 6.18877C3.90087 6.18877 4.51662 5.57303 4.51662 4.81346V3.86354L1.76599 2.20764Z" fill="#FFD643"/>
<path d="M3.14124 6.18881C3.90081 6.18881 4.51655 5.57307 4.51655 4.8135V3.86357L3.14124 3.03564V6.18881Z" fill="#FFB743"/>
<path d="M19.4141 12.0949C18.6689 12.0949 17.9839 12.3562 17.4447 12.7914V11.0494C17.4447 10.324 18.0349 9.73386 18.7603 9.73386C19.0839 9.73386 19.3462 9.47152 19.3462 9.14792C19.3462 8.82433 19.0839 8.56198 18.7603 8.56198C18.2775 8.56198 17.8266 8.70073 17.4447 8.93972V5.7757C17.4447 5.4521 17.1824 5.18976 16.8588 5.18976C16.5352 5.18976 16.2728 5.4521 16.2728 5.7757V8.93972C15.8909 8.7007 15.4401 8.56198 14.9573 8.56198C14.6337 8.56198 14.3714 8.82433 14.3714 9.14792C14.3714 9.47152 14.6337 9.73386 14.9573 9.73386C15.6827 9.73386 16.2728 10.324 16.2728 11.0494V12.7914C15.7337 12.3562 15.0487 12.0949 14.3035 12.0949C13.9799 12.0949 13.7175 12.3572 13.7175 12.6808C13.7175 13.0044 13.9799 13.2668 14.3035 13.2668C15.3894 13.2668 16.2728 14.1502 16.2728 15.2361V19.1593C16.2728 19.4829 16.5352 19.7453 16.8588 19.7453C17.1824 19.7453 17.4447 19.4829 17.4447 19.1593V15.2361C17.4447 14.1502 18.3282 13.2668 19.4141 13.2668C19.7377 13.2668 20 13.0044 20 12.6808C20 12.3572 19.7377 12.0949 19.4141 12.0949Z" fill="#568A73"/>
<path d="M17.4447 19.1594V15.2362C17.4447 14.1502 18.3281 13.2668 19.4141 13.2668C19.7377 13.2668 20 13.0044 20 12.6808C20 12.3573 19.7377 12.0949 19.4141 12.0949C18.6689 12.0949 17.9839 12.3562 17.4447 12.7914V11.0494C17.4447 10.3241 18.0349 9.73389 18.7602 9.73389C19.0838 9.73389 19.3462 9.47155 19.3462 9.14796C19.3462 8.82436 19.0838 8.56202 18.7602 8.56202C18.2774 8.56202 17.8266 8.70077 17.4447 8.93975V5.77573C17.4447 5.45214 17.1824 5.18979 16.8588 6.36167V19.7452L17.4447 19.1594Z" fill="#347357"/>
<path d="M18.2341 1.37531C18.2341 0.615742 17.6184 0 16.8588 0C16.0993 0 15.4835 0.615742 15.4835 1.37531V2.20766L16.8422 3.80684L18.2341 3.86355V1.37531Z" fill="#FFE590"/>
<path d="M18.234 3.86355V1.37531C18.234 0.615742 17.6183 0 16.8588 0V3.80754L18.234 3.86355Z" fill="#FFD643"/>
<path d="M15.4835 2.20764V4.81346C15.4835 5.57303 16.0993 6.18877 16.8588 6.18877C17.6184 6.18877 18.2341 5.57303 18.2341 4.81346V3.86354L15.4835 2.20764Z" fill="#FFD643"/>
<path d="M16.8588 6.18879C17.6183 6.18879 18.2341 5.57304 18.2341 4.81347V3.86355L16.8588 3.03558V6.18879Z" fill="#FFB743"/>
<path d="M12.5553 10.923C11.8101 10.923 11.1251 11.1843 10.586 11.6195V9.48691C10.586 8.76152 11.1761 8.17136 11.9015 8.17136C12.2251 8.17136 12.4874 7.90902 12.4874 7.58542C12.4874 7.26183 12.2251 6.99948 11.9015 6.99948C11.4187 6.99948 10.9679 7.13823 10.586 7.37722V5.7757C10.586 5.4521 10.3236 5.18976 10 5.18976C9.67642 5.18976 9.41408 5.4521 9.41408 5.7757V7.37722C9.03216 7.1382 8.58134 6.99948 8.09853 6.99948C7.77494 6.99948 7.51259 7.26183 7.51259 7.58542C7.51259 7.90902 7.77494 8.17136 8.09853 8.17136C8.82392 8.17136 9.41408 8.76148 9.41408 9.48691V11.6195C8.87494 11.1843 8.18994 10.923 7.4447 10.923C7.12111 10.923 6.85876 11.1853 6.85876 11.5089C6.85876 11.8325 7.12111 12.0949 7.4447 12.0949C8.5306 12.0949 9.41408 12.9783 9.41408 14.0643V19.1593C9.41408 19.4829 9.67642 19.7453 10 19.7453C10.3236 19.7453 10.586 19.4829 10.586 19.1593V14.0643C10.586 12.9783 11.4694 12.0949 12.5553 12.0949C12.8789 12.0949 13.1413 11.8325 13.1413 11.5089C13.1413 11.1853 12.8789 10.923 12.5553 10.923Z" fill="#568A73"/>
<path d="M10.5859 19.1593V14.0643C10.5859 12.9783 11.4694 12.0949 12.5553 12.0949C12.8789 12.0949 13.1412 11.8325 13.1412 11.5089C13.1412 11.1853 12.8789 10.923 12.5553 10.923C11.8101 10.923 11.1251 11.1843 10.5859 11.6195V9.48691C10.5859 8.76152 11.1761 8.17136 11.9015 8.17136C12.2251 8.17136 12.4874 7.90902 12.4874 7.58542C12.4874 7.26183 12.2251 6.99948 11.9015 6.99948C11.4187 6.99948 10.9679 7.13823 10.5859 7.37722V5.7757C10.5859 5.4521 10.3236 5.18976 10 5.18976V19.7452C10.3236 19.7453 10.5859 19.4829 10.5859 19.1593Z" fill="#347357"/>
<path d="M11.3754 1.37531C11.3754 0.615742 10.7596 0 10.0001 0C9.2405 0 8.62476 0.615742 8.62476 1.37531V2.20766L9.98343 3.80684L11.3753 3.86355V1.37531H11.3754Z" fill="#FFE590"/>
<path d="M11.3753 3.86355V1.37531C11.3753 0.615742 10.7596 0 10 0V3.80754L11.3753 3.86355Z" fill="#FFD643"/>
<path d="M8.62476 2.20764V4.81346C8.62476 5.57303 9.2405 6.18877 10.0001 6.18877C10.7596 6.18877 11.3754 5.57303 11.3754 4.81346V3.86354L8.62476 2.20764Z" fill="#FFD643"/>
<path d="M10 6.18881C10.7596 6.18881 11.3753 5.57307 11.3753 4.8135V3.86357L10 3.03564V6.18881Z" fill="#FFB743"/>
<path d="M19.4141 20H0.585938C0.262344 20 0 19.7377 0 19.4141C0 19.0905 0.262344 18.8281 0.585938 18.8281H19.4141C19.7377 18.8281 20 19.0905 20 19.4141C20 19.7377 19.7377 20 19.4141 20Z" fill="#568A73"/>
<path d="M19.4141 18.8281H10V20H19.4141C19.7377 20 20 19.7377 20 19.4141C20 19.0905 19.7377 18.8281 19.4141 18.8281Z" fill="#347357"/>
</g>
<defs>
<clipPath id="clip0_333_4387">
<rect width="20" height="20" fill="white"/>
</clipPath>
</defs>
</svg>
