<svg width="40" height="40" viewBox="0 0 40 40" fill="none" xmlns="http://www.w3.org/2000/svg">
<g clip-path="url(#clip0_349_7513)">
<path d="M17.4896 0H6.19273C2.77258 0 0 2.7668 0 6.19273V33.8073C0 37.2332 2.77258 40 6.19273 40H17.4896C20.9155 40 23.6823 37.227 23.6823 33.8073V6.19273C23.6823 2.77305 20.9155 0 17.4896 0Z" fill="#444956"/>
<path d="M23.6824 33.8073V6.19273C23.6824 2.77305 20.9155 0 17.4896 0H11.8412V40H17.4896C20.9155 40 23.6824 37.227 23.6824 33.8073Z" fill="#000032"/>
<path d="M17.4896 2.34375H6.19273C4.06687 2.34375 2.34375 4.06336 2.34375 6.19273V33.8073C2.34375 35.9366 4.06687 37.6562 6.19273 37.6562H17.4896C19.6229 37.6562 21.3386 35.9289 21.3386 33.8073V6.19273C21.3386 4.07109 19.6228 2.34375 17.4896 2.34375Z" fill="#F0F7FF"/>
<path d="M21.3386 33.8073V6.19273C21.3386 4.07109 19.6228 2.34375 17.4896 2.34375H11.8412V37.6562H17.4896C19.6228 37.6562 21.3386 35.9289 21.3386 33.8073Z" fill="#DFE7F4"/>
<path d="M13.724 7.36462H9.95837C9.31119 7.36462 8.7865 6.83994 8.7865 6.19275C8.7865 5.54556 9.31119 5.02087 9.95837 5.02087H13.724C14.3712 5.02087 14.8959 5.54556 14.8959 6.19275C14.8959 6.83994 14.3712 7.36462 13.724 7.36462Z" fill="#444956"/>
<path d="M14.8959 6.19275C14.8959 5.54556 14.3712 5.02087 13.724 5.02087H11.8412V7.36462H13.724C14.3712 7.36462 14.8959 6.83994 14.8959 6.19275Z" fill="#000032"/>
<path d="M17.4895 34.9791H6.19263C5.54544 34.9791 5.02075 34.4544 5.02075 33.8073C5.02075 33.1601 5.54544 32.6354 6.19263 32.6354H17.4895C18.1367 32.6354 18.6614 33.1601 18.6614 33.8073C18.6614 34.4544 18.1367 34.9791 17.4895 34.9791Z" fill="#DFE7F4"/>
<path d="M27.5312 10.0416C26.8841 10.0416 26.3594 10.5663 26.3594 11.2135C26.3594 11.8607 26.8841 12.3854 27.5312 12.3854C27.5772 12.3854 27.6145 12.4228 27.6145 12.4687C27.6145 13.1159 28.1392 13.6406 28.7864 13.6406C29.4336 13.6406 29.9583 13.1159 29.9583 12.4687C29.9584 11.1305 28.8695 10.0416 27.5312 10.0416Z" fill="#FDE047"/>
<path d="M27.5312 5.02087C26.8841 5.02087 26.3594 5.54556 26.3594 6.19275C26.3594 6.83994 26.8841 7.36462 27.5312 7.36462C30.3456 7.36462 32.6354 9.65439 32.6354 12.4688C32.6354 13.116 33.1601 13.6406 33.8073 13.6406C34.4545 13.6406 34.9791 13.116 34.9791 12.4688C34.9791 8.36197 31.638 5.02087 27.5312 5.02087Z" fill="#FDE047"/>
<path d="M27.5312 0C26.8841 0 26.3594 0.524687 26.3594 1.17188C26.3594 1.81906 26.8841 2.34375 27.5312 2.34375C33.1142 2.34375 37.6562 6.88578 37.6562 12.4688C37.6562 13.1159 38.1809 13.6406 38.8281 13.6406C39.4753 13.6406 40 13.1159 40 12.4688C40 5.59344 34.4066 0 27.5312 0Z" fill="#FDE047"/>
<path d="M28.7865 13.6406C29.4336 13.6406 29.9583 13.1159 29.9583 12.4687C29.9583 11.7996 29.6861 11.1928 29.2467 10.7534L27.5902 12.4098C27.6053 12.4249 27.6146 12.4458 27.6146 12.4687C27.6146 13.1159 28.1393 13.6406 28.7865 13.6406Z" fill="#FACC15"/>
<path d="M33.8072 13.6406C34.4544 13.6406 34.9791 13.1159 34.9791 12.4688C34.9791 10.4154 34.1438 8.55337 32.7952 7.20477L31.1387 8.86126C32.0629 9.78548 32.6353 11.0616 32.6353 12.4688C32.6353 13.1159 33.16 13.6406 33.8072 13.6406Z" fill="#FACC15"/>
<path d="M37.6562 12.4688C37.6562 13.1159 38.1809 13.6406 38.8281 13.6406C39.4753 13.6406 40 13.1159 40 12.4688C40 9.0311 38.6016 5.91391 36.3439 3.6561L34.6874 5.31258C36.5207 7.14602 37.6562 9.67727 37.6562 12.4688Z" fill="#FACC15"/>
<path d="M17.4895 19.4558H6.19263C5.54544 19.4558 5.02075 19.9805 5.02075 20.6277V23.138C5.02075 25.5145 6.95411 27.448 9.3306 27.448H14.3515C16.728 27.448 18.6614 25.5145 18.6614 23.138V20.6277C18.6614 19.9805 18.1367 19.4558 17.4895 19.4558Z" fill="#568A73"/>
<path d="M11.8411 27.4479H14.3515C16.728 27.4479 18.6614 25.5144 18.6614 23.138V20.6276C18.6614 19.9804 18.1367 19.4557 17.4895 19.4557H11.8411V27.4479Z" fill="#347357"/>
<path d="M7.9751 17.7181C7.9751 18.8694 8.42353 19.9517 9.23775 20.7656L11.0125 22.5409C11.4701 22.9985 12.2121 22.9985 12.6698 22.5409L14.445 20.7652C15.2588 19.9517 15.7072 18.8694 15.7072 17.7181C15.7072 16.5668 15.2588 15.4845 14.445 14.6711L12.6698 12.8953C12.2122 12.4377 11.4702 12.4377 11.0125 12.8953L9.23775 14.6706C8.42353 15.4845 7.9751 16.5668 7.9751 17.7181Z" fill="#347357"/>
<path d="M12.6698 22.541L14.445 20.7652C15.2588 19.9517 15.7072 18.8695 15.7072 17.7181C15.7072 16.5668 15.2588 15.4845 14.445 14.6711L12.6698 12.8953C12.441 12.6665 12.141 12.5521 11.8412 12.5521V22.8842C12.141 22.8842 12.441 22.7698 12.6698 22.541Z" fill="#2B6049"/>
<path d="M17.4895 32.6354H11.8411V34.9791H17.4895C18.1367 34.9791 18.6614 34.4544 18.6614 33.8073C18.6614 33.1601 18.1367 32.6354 17.4895 32.6354Z" fill="#C7CFE1"/>
</g>
<defs>
<clipPath id="clip0_349_7513">
<rect width="40" height="40" fill="white"/>
</clipPath>
</defs>
</svg>
