<svg width="40" height="40" viewBox="0 0 40 40" fill="none" xmlns="http://www.w3.org/2000/svg">
<g clip-path="url(#clip0_349_7508)">
<path d="M9.45312 7.03125C11.3948 7.03125 12.9688 5.45725 12.9688 3.51562C12.9688 1.574 11.3948 0 9.45312 0C7.5115 0 5.9375 1.574 5.9375 3.51562C5.9375 5.45725 7.5115 7.03125 9.45312 7.03125Z" fill="#EAB308"/>
<path d="M12.9688 3.51562C12.9688 1.57398 11.3946 0 9.45312 0V7.03125C11.3946 7.03125 12.9688 5.45727 12.9688 3.51562Z" fill="#CA8A04"/>
<path d="M13.9789 13.6992L13.5937 17.9687L18.1851 26.518C18.1922 26.5359 18.1992 26.5547 18.2055 26.5726C18.218 26.6094 18.2289 26.6453 18.2375 26.682C18.2461 26.718 18.2531 26.7547 18.2586 26.7914C18.264 26.8266 18.2672 26.8617 18.2687 26.8969C18.2867 27.2469 18.143 27.5805 17.8961 27.8109C17.8687 27.8367 17.8398 27.8609 17.8101 27.8844C17.6156 28.0336 17.3703 28.125 17.0969 28.125H1.80936C0.979673 28.125 0.413267 27.2875 0.721079 26.518L5.31249 17.9687L4.15467 9.83436C3.86405 8.38436 4.97342 7.03124 6.45233 7.03124H12.9687C14.432 6.80312 15.7164 9.03515 20.643 13.7851L18.343 18.0633L13.9789 13.6992Z" fill="#FDE047"/>
<path d="M13.9789 13.6992L13.5938 17.9687L18.1852 26.518C18.1922 26.5359 18.1992 26.5547 18.2055 26.5726C18.218 26.6094 18.2289 26.6453 18.2375 26.682C18.2469 26.7187 18.2539 26.7555 18.2586 26.7914C18.2641 26.8266 18.2672 26.8617 18.2687 26.8969C18.2867 27.2469 18.143 27.5805 17.8961 27.8109C17.8688 27.8367 17.8398 27.8609 17.8102 27.8844C17.6156 28.0336 17.3703 28.125 17.0969 28.125H9.45312V7.03124H12.9688C14.432 6.80312 15.7164 9.03515 20.643 13.7851L18.343 18.0633L13.9789 13.6992Z" fill="#FACC15"/>
<path d="M30.5469 7.03125C32.4885 7.03125 34.0625 5.45725 34.0625 3.51562C34.0625 1.574 32.4885 0 30.5469 0C28.6052 0 27.0312 1.574 27.0312 3.51562C27.0312 5.45725 28.6052 7.03125 30.5469 7.03125Z" fill="#347357"/>
<path d="M34.0625 3.51562C34.0625 1.57398 32.4884 0 30.5469 0V7.03125C32.4884 7.03125 34.0625 5.45727 34.0625 3.51562Z" fill="#2B6049"/>
<path d="M38.1914 28.125H22.9031C22.0734 28.125 21.507 27.2875 21.8148 26.518L26.4063 17.9687L26.0211 13.6992L21.657 18.0633C21.1992 18.5211 20.6 18.75 20 18.75C19.4 18.75 18.8008 18.5211 18.343 18.0633C17.4273 17.1476 17.4273 15.6648 18.343 14.7492C24.1164 9.33748 25.4727 6.78826 27.0313 7.03123H33.5477C35.0266 7.03123 36.1359 8.38436 35.8453 9.83436L34.6875 17.9687L39.2789 26.518C39.5867 27.2875 39.0203 28.125 38.1914 28.125Z" fill="#568A73"/>
<path d="M14.1406 28.125V38.8281C14.1406 39.4753 13.6159 40 12.9688 40H5.9375C5.29031 40 4.76562 39.4753 4.76562 38.8281V28.125H14.1406Z" fill="#EAB308"/>
<path d="M9.45312 40H12.9688C13.6159 40 14.1406 39.4753 14.1406 38.8281V28.125H9.45312V40Z" fill="#CA8A04"/>
<path d="M25.8595 28.125V38.8281C25.8595 39.4753 26.3842 40 27.0314 40H34.0626C34.7098 40 35.2345 39.4753 35.2345 38.8281V28.125" fill="#347357"/>
<path d="M30.5469 40H34.0625C34.7097 40 35.2344 39.4753 35.2344 38.8281V28.125H30.5469V40Z" fill="#2B6049"/>
<path d="M38.1914 28.125H30.5469V7.03125H33.5477C35.0266 7.03125 36.1359 8.38437 35.8453 9.83437L34.6875 17.9688L39.2789 26.518C39.5867 27.2875 39.0203 28.125 38.1914 28.125Z" fill="#347357"/>
</g>
<defs>
<clipPath id="clip0_349_7508">
<rect width="40" height="40" fill="white"/>
</clipPath>
</defs>
</svg>
