<svg width="20" height="20" viewBox="0 0 20 20" fill="none" xmlns="http://www.w3.org/2000/svg">
<g clip-path="url(#clip0_333_4417)">
<path d="M17.5105 13.0559C17.5107 13.7434 18.0675 14.3007 18.755 14.3008C19.4425 14.3008 20 13.7434 20 13.0559L18.7552 12.0219L17.5105 13.0559Z" fill="#D58678"/>
<path d="M15.0207 5.58444L16.3838 8.54514L15.0207 12.4821L12.5316 11.9086H12.5312V8.54299C12.5312 8.54299 10.3789 6.75315 9.8363 4.52854L9.39685 2.03518L10.7883 0.829712L12.2804 3.85745C12.7961 4.90397 13.8558 5.57077 15.0207 5.58444Z" fill="#347357"/>
<path d="M20 9.34451V13.0558H17.5106L15.0208 12.482V5.58435C15.0329 5.58474 16.2403 5.58474 16.2403 5.58474C18.3168 5.58478 20 7.26798 20 9.34451Z" fill="#2B6049"/>
<path d="M2.48945 13.0559C2.48926 13.7434 1.93246 14.3007 1.24492 14.3008C0.557422 14.3008 0 13.7434 0 13.0559L1.24473 12.0219L2.48945 13.0559Z" fill="#FFD5CC"/>
<path d="M4.97891 5.58482L6.12742 8.42134L4.97891 12.4824L2.48945 13.0559H0V9.34454C0 7.26798 1.6832 5.58478 3.75977 5.58478L4.97891 5.58482Z" fill="#FDE047"/>
<path d="M10.8543 1.24535C10.8543 1.37426 10.8344 1.50551 10.7918 1.6348L9.11931 1.9225L8.427 0.855505C8.64224 0.20238 9.34614 -0.152307 9.99927 0.062927C9.99966 0.062927 9.99966 0.062927 10 0.0633176C10.5231 0.235583 10.8543 0.722693 10.8543 1.24535Z" fill="#FFBFB3"/>
<path d="M10.7918 1.63483L9.84334 4.50787C9.17341 6.56334 7.46873 8.54303 7.46873 8.54303V11.9087L4.97888 12.4825V5.58483H5.1074C6.15857 5.58483 7.0906 4.91022 7.41951 3.91217L8.42693 0.85553L10.7918 1.63483Z" fill="#FACC15"/>
<path d="M4.97886 0.937134L5.8228 2.99307L4.97886 5.58479C3.91362 5.58479 3.04956 4.72073 3.04956 3.6551V2.86682C3.04956 1.8012 3.91362 0.937134 4.97886 0.937134Z" fill="#FFD5CC"/>
<path d="M3.66138 11.9086L3.0261 12.3253L2.4895 11.9086V9.13104C2.4895 8.80745 2.75185 8.5451 3.07544 8.5451C3.39903 8.5451 3.66138 8.80745 3.66138 9.13104V11.9086Z" fill="#FACC15"/>
<path d="M4.97896 11.9086L6.33161 16.1204L4.97896 20H3.07544C2.752 20 2.4895 19.7375 2.4895 19.414V11.9086H4.97896Z" fill="#464B52"/>
<path d="M6.90857 2.86682V3.6551C6.90857 4.72073 6.04451 5.58479 4.97927 5.58479H4.97888V0.937134H4.97927C6.04451 0.937134 6.90857 1.8012 6.90857 2.86682Z" fill="#FFBFB3"/>
<path d="M7.46873 11.9086V19.414C7.46873 19.7375 7.20662 20 6.88279 20H4.97888V11.9086H7.46873Z" fill="#292B2F"/>
<path d="M15.0207 0.937134L15.8647 2.99307L15.0207 5.58479C13.9555 5.58479 13.0914 4.72073 13.0914 3.6551V2.86682C13.0914 1.8012 13.9555 0.937134 15.0207 0.937134Z" fill="#E99A8B"/>
<path d="M16.9504 2.86682V3.6551C16.9504 4.72073 16.0864 5.58479 15.0211 5.58479H15.0208V0.937134H15.0211C16.0864 0.937134 16.9504 1.8012 16.9504 2.86682Z" fill="#D58678"/>
<path d="M16.3386 11.9086L16.9739 12.3253L17.5105 11.9086V9.13104C17.5105 8.80745 17.2482 8.5451 16.9246 8.5451C16.601 8.5451 16.3386 8.80745 16.3386 9.13104V11.9086Z" fill="#347357"/>
<path d="M12.5312 11.9086V19.414C12.5312 19.7375 12.7934 20 13.1172 20H15.0211L16.0425 15.034L15.0211 11.9086H12.5312Z" fill="#464B52"/>
<path d="M15.0211 11.9086V20H16.9246C17.2481 20 17.5106 19.7375 17.5106 19.414V11.9086H15.0211Z" fill="#292B2F"/>
</g>
<defs>
<clipPath id="clip0_333_4417">
<rect width="20" height="20" fill="white"/>
</clipPath>
</defs>
</svg>
