<svg width="20" height="20" viewBox="0 0 20 20" fill="none" xmlns="http://www.w3.org/2000/svg">
<g clip-path="url(#clip0_333_4388)">
<path d="M17.0906 14.6047C17.625 13.7826 18.0133 12.8689 18.2354 11.9152H15.5653C14.7611 14.2538 12.5272 15.8836 9.99961 15.8836H9.98633C7.40898 15.878 5.19922 14.2237 4.40449 11.9152H1.76465C1.98668 12.8689 2.37504 13.7827 2.90938 14.6047L2.10039 15.4137C1.87176 15.6415 1.87098 16.0128 2.1 16.2426L3.75742 17.9C3.98699 18.1288 4.35824 18.1285 4.58633 17.8996L5.39531 17.0907C6.2625 17.6543 7.23164 18.0559 8.24219 18.2707V19.4141C8.24219 19.7375 8.50469 20 8.82812 20H11.1719C11.4953 20 11.7578 19.7375 11.7578 19.4141V18.2707C12.7684 18.0559 13.7375 17.6543 14.6047 17.0907L15.4137 17.8996C15.6444 18.1303 16.0147 18.1271 16.2426 17.9L17.9 16.2426C18.1289 16.0129 18.1284 15.6416 17.8996 15.4137L17.0906 14.6047Z" fill="#568A73"/>
<path d="M17.0906 14.6047C17.625 13.7826 18.0133 12.8689 18.2354 11.9152H15.5653C14.7611 14.2538 12.5272 15.8836 9.99961 15.8836H9.98633V20H11.1719C11.4953 20 11.7578 19.7375 11.7578 19.4141V18.2707C12.7684 18.0559 13.7375 17.6543 14.6047 17.0907L15.4137 17.8996C15.6436 18.1295 16.0139 18.1279 16.2426 17.9L17.9 16.2426C18.129 16.0128 18.1282 15.6415 17.8996 15.4137L17.0906 14.6047Z" fill="#347357"/>
<path d="M18.8449 9.80974V11.0812C18.8449 11.4047 18.5824 11.6672 18.2589 11.6672H11.5492C11.366 11.6672 11.1929 11.5812 11.0824 11.4351C10.823 11.0929 10.4285 10.8969 9.99995 10.8969C9.57143 10.8969 9.1769 11.0929 8.91753 11.4351C8.80698 11.5812 8.63393 11.6672 8.45073 11.6672H1.74097C1.41753 11.6672 1.15503 11.4047 1.15503 11.0812V9.80974C1.15503 7.66638 1.93159 5.5988 3.34136 3.98787C3.85386 3.40193 4.43706 2.89099 5.07339 2.46404C5.23472 2.35544 5.72261 2.74685 5.72261 2.74685C5.72261 2.74685 5.96675 1.93435 6.17222 1.83552C6.88667 1.49216 7.64761 1.24451 8.43589 1.10388H11.564C12.3523 1.24451 13.1132 1.49216 13.8277 1.83591C14.0097 1.92302 14.2269 2.87927 14.2269 2.87927C14.2269 2.87927 14.7433 2.34099 14.9265 2.46404C15.5628 2.89099 16.146 3.40193 16.6585 3.98787C18.0683 5.5988 18.8449 7.66638 18.8449 9.80974Z" fill="#FDE047"/>
<path d="M18.8449 9.80974V11.0812C18.8449 11.4047 18.5824 11.6672 18.259 11.6672H11.5492C11.366 11.6672 11.193 11.5812 11.0824 11.4351C10.823 11.0929 10.4285 10.8969 10 10.8969V1.10388H11.5641C12.3523 1.24451 13.1133 1.49216 13.8277 1.83591C14.0098 1.92302 14.227 2.87927 14.227 2.87927C14.227 2.87927 14.7434 2.34099 14.9266 2.46404C15.5629 2.89099 16.1461 3.40193 16.6586 3.98787C18.0684 5.5988 18.8449 7.66638 18.8449 9.80974Z" fill="#FACC15"/>
<path d="M11.7578 1.55586V5.06836C11.7578 5.95664 11.0348 6.67969 10.1465 6.67969H9.85352C8.96523 6.67969 8.24219 5.95664 8.24219 5.06836V1.55586C8.24219 0.698047 8.94023 0 9.79805 0H10.202C11.0598 0 11.7578 0.698047 11.7578 1.55586Z" fill="#FACC15"/>
<path d="M6.09302 6.28909C5.80356 6.28909 5.552 6.07502 5.51294 5.7801L5.07349 2.46409C5.42466 2.22815 5.79185 2.01838 6.17231 1.83557L6.67466 5.6262C6.72103 5.97557 6.44958 6.28909 6.09302 6.28909Z" fill="#FACC15"/>
<path d="M14.9265 2.46406L14.4871 5.78008C14.4444 6.10258 14.148 6.32672 13.8293 6.28398C13.5086 6.24141 13.2828 5.94688 13.3253 5.62617L13.8277 1.83594C14.2082 2.01836 14.5753 2.22813 14.9265 2.46406Z" fill="#EAB308"/>
<path d="M8.38328 9.51874H1.75625C0.787891 9.51874 0 10.3066 0 11.275V12.0578C0 12.3812 0.2625 12.6437 0.585938 12.6437H8.38328V9.51874Z" fill="#FACC15"/>
<path d="M18.2437 9.51874H11.6117V12.6437H19.414C19.7375 12.6437 20 12.3812 20 12.0578V11.275C20 10.3066 19.2121 9.51874 18.2437 9.51874Z" fill="#EAB308"/>
<path d="M10.1465 6.67969H10V0H10.202C11.0598 0 11.7578 0.698047 11.7578 1.55586V5.06836C11.7578 5.95664 11.0348 6.67969 10.1465 6.67969Z" fill="#EAB308"/>
<path d="M12.072 11.0812C12.072 11.5367 11.9271 11.9687 11.6528 12.3312C11.2567 12.8539 10.6544 13.1531 10.0001 13.1531C9.3458 13.1531 8.74346 12.8539 8.34775 12.3316C8.07314 11.9687 7.92822 11.5367 7.92822 11.0812C7.92822 10.6257 8.07314 10.1937 8.34736 9.83121C8.74346 9.30856 9.3458 9.00934 10.0001 9.00934C10.6544 9.00934 11.2567 9.30856 11.6524 9.83082C11.9271 10.1937 12.072 10.6257 12.072 11.0812Z" fill="#F4F4F7"/>
<path d="M12.0719 11.0812C12.0719 11.5367 11.927 11.9687 11.6527 12.3312C11.2566 12.8539 10.6543 13.1531 10 13.1531V9.00934C10.6543 9.00934 11.2566 9.30856 11.6523 9.83082C11.927 10.1937 12.0719 10.6257 12.0719 11.0812Z" fill="#E5EAEE"/>
<path d="M10 8.5531C8.58435 8.5531 7.47192 9.70029 7.47192 11.0812C7.47192 12.4581 8.58056 13.6094 10 13.6094C11.4158 13.6094 12.5282 12.4622 12.5282 11.0812C12.5282 9.70427 11.4195 8.5531 10 8.5531ZM10 12.4375C9.24009 12.4375 8.6438 11.8224 8.6438 11.0812C8.6438 10.3388 9.24134 9.72498 10 9.72498C10.76 9.72498 11.3563 10.3401 11.3563 11.0812C11.3563 11.8236 10.7588 12.4375 10 12.4375Z" fill="#464B52"/>
<path d="M12.5281 11.0812C12.5281 12.4592 11.4185 13.6094 10 13.6094V12.4375C10.7585 12.4375 11.3563 11.8239 11.3563 11.0812C11.3563 10.3406 10.7604 9.72498 10 9.72498V8.5531C11.4185 8.5531 12.5281 9.7033 12.5281 11.0812Z" fill="#292B2F"/>
</g>
<defs>
<clipPath id="clip0_333_4388">
<rect width="20" height="20" fill="white"/>
</clipPath>
</defs>
</svg>
