<svg width="20" height="20" viewBox="0 0 20 20" fill="none" xmlns="http://www.w3.org/2000/svg">
<path d="M14.9064 9.08057C16.0689 8.91723 16.9639 7.92056 16.9664 6.71306C16.9664 5.52306 16.0989 4.5364 14.9614 4.34973" stroke="#6B7280" stroke-width="1.5" stroke-linecap="round" stroke-linejoin="round"/>
<path d="M16.4404 11.8752C17.5663 12.0436 18.3521 12.4377 18.3521 13.2502C18.3521 13.8094 17.9821 14.1727 17.3838 14.4011" stroke="#6B7280" stroke-width="1.5" stroke-linecap="round" stroke-linejoin="round"/>
<path fill-rule="evenodd" clip-rule="evenodd" d="M9.90553 12.2198C7.2272 12.2198 4.9397 12.6256 4.9397 14.2465C4.9397 15.8665 7.21303 16.284 9.90553 16.284C12.5839 16.284 14.8705 15.8823 14.8705 14.2606C14.8705 12.639 12.598 12.2198 9.90553 12.2198Z" stroke="#6B7280" stroke-width="1.5" stroke-linecap="round" stroke-linejoin="round"/>
<path fill-rule="evenodd" clip-rule="evenodd" d="M9.90555 9.90656C11.663 9.90656 13.088 8.4824 13.088 6.72406C13.088 4.96656 11.663 3.54156 9.90555 3.54156C8.14805 3.54156 6.72305 4.96656 6.72305 6.72406C6.71638 8.47573 8.13055 9.90073 9.88221 9.90656H9.90555Z" stroke="#6B7280" stroke-width="1.5" stroke-linecap="round" stroke-linejoin="round"/>
<path d="M4.90399 9.08057C3.74066 8.91723 2.84649 7.92056 2.84399 6.71306C2.84399 5.52306 3.71149 4.5364 4.84899 4.34973" stroke="#6B7280" stroke-width="1.5" stroke-linecap="round" stroke-linejoin="round"/>
<path d="M3.36992 11.8752C2.24409 12.0436 1.45825 12.4377 1.45825 13.2502C1.45825 13.8094 1.82825 14.1727 2.42659 14.4011" stroke="#6B7280" stroke-width="1.5" stroke-linecap="round" stroke-linejoin="round"/>
</svg>
