<svg width="20" height="20" viewBox="0 0 20 20" fill="none" xmlns="http://www.w3.org/2000/svg">
<rect width="20" height="20" fill="white"/>
<path fill-rule="evenodd" clip-rule="evenodd" d="M13.4653 6.86069C13.4653 8.81876 11.9043 10.3888 9.95756 10.3888C8.01081 10.3888 6.44982 8.81876 6.44982 6.86069C6.44982 4.90187 8.01081 3.33331 9.95756 3.33331C11.9043 3.33331 13.4653 4.90187 13.4653 6.86069ZM9.95757 16.6666C7.09825 16.6666 4.65678 16.2133 4.65678 14.4001C4.65678 12.5861 7.08258 12.1163 9.95757 12.1163C12.8169 12.1163 15.2583 12.5696 15.2583 14.3836C15.2583 16.1968 12.8326 16.6666 9.95757 16.6666ZM14.9643 6.92433C14.9643 7.92251 14.6666 8.85238 14.1442 9.6254C14.0905 9.70496 14.1383 9.81228 14.233 9.82879C14.3636 9.8513 14.4987 9.86406 14.636 9.86782C16.0052 9.90384 17.2341 9.01749 17.5736 7.68309C18.0766 5.70101 16.5999 3.92156 14.7195 3.92156C14.5151 3.92156 14.3196 3.94332 14.1293 3.98235C14.1032 3.98835 14.0756 4.00036 14.0607 4.02363C14.0428 4.05215 14.0562 4.09042 14.0741 4.11519C14.639 4.91148 14.9643 5.88263 14.9643 6.92433ZM17.2319 11.2605C18.1519 11.4413 18.7571 11.8106 19.0078 12.3472C19.2197 12.7877 19.2197 13.2988 19.0078 13.7386C18.6242 14.5709 17.3878 14.8381 16.9073 14.9072C16.8081 14.9222 16.7282 14.8359 16.7387 14.736C16.9842 12.4297 15.0314 11.3363 14.5263 11.0848C14.5046 11.0736 14.5002 11.0563 14.5024 11.0458C14.5039 11.0383 14.5129 11.0263 14.5293 11.024C15.6224 11.0038 16.7976 11.1539 17.2319 11.2605ZM5.3643 9.86774C5.50159 9.86399 5.6359 9.85198 5.76723 9.82871C5.86199 9.8122 5.90975 9.70488 5.85602 9.62533C5.33371 8.85231 5.03598 7.92243 5.03598 6.92426C5.03598 5.88256 5.36131 4.9114 5.92616 4.11511C5.94407 4.09035 5.95676 4.05207 5.93959 4.02355C5.92467 4.00104 5.89632 3.98828 5.87095 3.98228C5.67993 3.94325 5.48443 3.92148 5.27998 3.92148C3.39964 3.92148 1.92297 5.70093 2.42663 7.68302C2.76614 9.01742 3.99508 9.90376 5.3643 9.86774ZM5.49749 11.0454C5.49973 11.0566 5.49525 11.0731 5.47436 11.0851C4.96846 11.3366 3.01573 12.43 3.26122 14.7356C3.27167 14.8362 3.19257 14.9217 3.09333 14.9075C2.6128 14.8384 1.3764 14.5712 0.992868 13.7389C0.780209 13.2984 0.780209 12.788 0.992868 12.3475C1.24358 11.8109 1.84798 11.4416 2.768 11.26C3.20302 11.1542 4.37749 11.0041 5.47137 11.0243C5.48779 11.0266 5.496 11.0386 5.49749 11.0454Z" fill="#347357"/>
</svg>
