<svg width="24" height="24" viewBox="0 0 24 24" fill="none" xmlns="http://www.w3.org/2000/svg">
<path d="M15 6.5C13.4 7.3 13.3334 9.83333 13.5 11C16.5 14.5 18.5 13 20 12C21.2 11.2 21.1667 7.33333 21 5.5C19.6667 5.5 16.6 5.7 15 6.5Z" fill="#347357"/>
<path d="M3.5 9.5C2.7 8.3 2.5 5 2.5 3.5C3.66667 3.5 6.3 3.6 7.5 4C9 4.5 10.5 6 10.5 8C10.5 10 10.5 10.5 8.5 11.5C6.5 12.5 4.5 11 3.5 9.5Z" fill="#347357"/>
<path d="M3.86047 11.1291L3.94886 11.0407L3.86047 11.1291C4.62906 11.8976 5.79657 12.2328 6.93755 12.2328C8.17555 12.2328 9.41943 11.8378 10.1291 11.1282C10.81 10.4472 11.2009 9.27382 11.2312 8.08673C11.2616 6.89841 10.9316 5.66249 10.129 4.86045C9.22962 3.96149 7.90915 3.46769 6.52371 3.19687C5.136 2.9256 3.66656 2.875 2.45408 2.875C2.13442 2.875 1.875 3.13434 1.875 3.45404C1.875 4.6665 1.92538 6.13594 2.19653 7.52366C2.46724 8.90912 2.96104 10.2296 3.86047 11.1291ZM9.31021 5.68021L9.31021 5.68021C9.84444 6.21441 10.0845 7.13294 10.0641 8.05477C10.0437 8.97767 9.76324 9.85719 9.3103 10.3102C8.85684 10.7632 7.97725 11.0436 7.05446 11.064C6.13276 11.0845 5.21446 10.8444 4.68025 10.3102L4.59866 10.3918L4.68025 10.3102C4.0007 9.63068 3.59362 8.59044 3.35479 7.43024C3.12569 6.31732 3.05444 5.1096 3.03761 4.03761C4.1096 4.05444 5.31732 4.12568 6.43024 4.35477C7.59045 4.59359 8.63068 5.00066 9.31021 5.68021Z" fill="#347357" stroke="#347357" stroke-width="0.25"/>
<path d="M22.125 5.16895C22.125 4.84925 21.8656 4.58984 21.5459 4.58984C20.3335 4.58984 18.864 4.64022 17.4763 4.91137C16.0909 5.18208 14.7704 5.67588 13.8709 6.57529C13.0684 7.37734 12.7384 8.61326 12.7688 9.80158C12.7991 10.9887 13.19 12.1621 13.8709 12.843L13.871 12.8431C14.5806 13.5517 15.8235 13.9467 17.0615 13.9467C18.2025 13.9467 19.3691 13.6125 20.1394 12.8441L20.1395 12.8439C21.0385 11.9445 21.5323 10.624 21.8031 9.23859C22.0744 7.85087 22.125 6.38145 22.125 5.16895ZM22.125 5.16895L22 5.16893L22.125 5.16895ZM19.3189 12.0241L19.3189 12.0242C18.7847 12.5584 17.8662 12.7984 16.9443 12.778C16.0214 12.7576 15.1418 12.4771 14.6889 12.0242C14.2359 11.5712 13.9555 10.6917 13.935 9.76872C13.9146 8.84689 14.1547 7.92836 14.6889 7.39416C15.3684 6.71461 16.4087 6.30754 17.5689 6.06872C18.6818 5.83963 19.8895 5.76839 20.9615 5.75156C20.9447 6.82398 20.8734 8.03193 20.6443 9.14486C20.4055 10.3051 19.9984 11.3451 19.3189 12.0241Z" fill="#347357" stroke="#347357" stroke-width="0.25"/>
<path d="M17.5736 8.33136L17.5732 8.33155C14.2621 9.88824 12.5348 12.534 11.6876 15.3035C11.183 12.4737 10.2951 10.5797 9.37749 9.28714C8.40187 7.91283 7.39725 7.22531 6.80384 6.8192L6.80296 6.8186C6.77484 6.79934 6.74856 6.78146 6.72406 6.7648C6.61325 6.68943 6.5388 6.6388 6.49524 6.59595C6.26931 6.3704 5.90253 6.37052 5.67675 6.59631C5.45085 6.82221 5.45085 7.18925 5.67675 7.41515L5.67675 7.41516L5.67719 7.41559C5.77667 7.51408 5.94206 7.63222 6.14956 7.77412L6.14957 7.77412L6.1497 7.77421C6.80825 8.2245 8.00449 9.04243 9.03961 10.9384C10.0762 12.837 10.9564 15.8269 10.9564 20.6274C10.9564 20.9471 11.2158 21.2065 11.5355 21.2065C11.855 21.2065 12.1146 20.9473 12.1146 20.6283C12.1146 16.7498 13.1568 11.6877 18.0664 9.38063L18.0675 9.38012L18.1404 9.34503C18.1405 9.34498 18.1406 9.34492 18.1407 9.34487C18.442 9.20181 18.5095 8.86733 18.3798 8.59221C18.2373 8.28924 17.8486 8.20327 17.5736 8.33136Z" fill="#347357" stroke="#347357" stroke-width="0.25"/>
<path d="M12 14C12.5 12.8333 13.5 10.7 15.5 9.5" stroke="white" stroke-width="0.4" stroke-linecap="round"/>
<path d="M8.5 8C9.78262 9.66371 10.7537 10.5632 11.5 13.5" stroke="white" stroke-width="0.4" stroke-linecap="round"/>
</svg>
